<?xml version="1.0" standalone="no"?>
<!DOCTYPE svg PUBLIC "-//W3C//DTD SVG 20010904//EN"
 "http://www.w3.org/TR/2001/REC-SVG-20010904/DTD/svg10.dtd">
<svg version="1.0" xmlns="http://www.w3.org/2000/svg"
 width="400.000000pt" height="198.000000pt" viewBox="0 0 400.000000 198.000000"
 preserveAspectRatio="xMidYMid meet">

<g transform="translate(0.000000,198.000000) scale(0.100000,-0.100000)"
fill="#000000" stroke="none">
<path d="M2411 1975 c9 -8 800 -12 805 -3 3 4 -178 8 -402 8 -224 0 -405 -2
-403 -5z"/>
<path d="M260 1929 c-107 -21 -185 -91 -215 -191 -22 -76 -23 -1429 0 -1504
19 -67 73 -127 143 -161 l57 -28 1745 0 c1692 0 1746 1 1794 19 66 25 128 84
157 149 l24 52 0 720 c0 682 -1 723 -19 769 -23 59 -76 120 -127 146 -20 11
-65 24 -100 29 -79 13 -3394 13 -3459 0z m392 -60 c11 -6 36 -11 54 -11 19 0
37 -4 40 -9 3 -6 11 -6 19 1 10 8 15 8 20 -1 6 -8 10 -7 17 2 7 11 11 11 14 2
4 -9 11 -9 29 -1 31 14 55 4 55 -22 0 -16 -6 -20 -33 -20 -18 0 -38 5 -45 12
-7 7 -12 8 -12 2 0 -6 -31 -10 -77 -10 -72 1 -78 3 -76 21 2 20 -3 20 -210 17
-201 -3 -245 2 -160 18 62 12 342 11 365 -1z m725 5 c17 -5 21 -12 18 -40 l-3
-35 311 3 c172 2 321 7 331 12 14 7 17 6 12 -2 -5 -9 62 -12 276 -12 231 0
288 3 312 15 25 13 27 13 22 0 -5 -13 26 -15 235 -15 146 0 248 4 260 10 11 7
120 11 276 11 219 1 253 3 228 14 -21 9 -133 14 -392 19 -310 5 -363 4 -363
-8 0 -8 8 -17 18 -19 12 -3 11 -5 -6 -6 -16 -1 -26 6 -29 19 -4 16 -14 20 -44
20 -32 0 -39 -3 -39 -20 0 -18 -7 -20 -61 -20 -54 0 -61 2 -57 18 5 17 -8 18
-208 21 -208 2 -212 2 -207 -18 6 -23 -17 -28 -119 -23 -61 3 -68 6 -68 24 0
16 -5 19 -22 14 -25 -6 -102 3 -94 12 3 2 371 7 817 9 l812 4 58 -28 c32 -15
58 -31 58 -35 1 -5 -84 -8 -188 -8 -116 0 -192 -4 -196 -10 -4 -7 -349 -10
-1003 -10 -868 1 -993 3 -964 15 40 18 41 41 1 49 -17 3 -28 10 -24 16 7 11
12 12 42 4z m87 -27 c12 12 48 10 53 -4 3 -7 12 -13 20 -13 8 0 12 4 8 9 -7
12 21 20 60 18 19 -1 31 -8 33 -19 4 -18 4 -18 -98 -19 -107 -2 -110 -1 -110
22 0 17 3 19 13 10 8 -6 17 -8 21 -4z m882 -12 c13 -13 13 -15 1 -15 -8 0 -17
7 -21 15 -3 8 -3 15 0 15 3 0 12 -7 20 -15z m121 -7 c-3 -8 -6 -5 -6 6 -1 11
2 17 5 13 3 -3 4 -12 1 -19z m567 7 c-4 -8 -8 -15 -10 -15 -2 0 -4 7 -4 15 0
8 4 15 10 15 5 0 7 -7 4 -15z m-2401 -31 c21 -14 17 -15 -53 -9 -41 3 -136 8
-212 10 -116 3 -137 2 -142 -11 -3 -9 -4 -20 0 -25 3 -5 -1 -9 -9 -9 -12 0
-26 27 -27 52 0 11 46 13 238 11 148 -2 188 -6 205 -19z m2840 -95 c-21 -41
-39 -76 -40 -78 -2 -2 -5 -2 -8 1 -11 10 72 164 83 153 1 -1 -14 -35 -35 -76z
m102 51 c-16 -16 -34 -30 -39 -30 -13 0 45 59 58 59 6 1 -3 -12 -19 -29z
m-703 -3 c6 -9 11 -8 19 3 8 11 12 12 16 3 2 -7 9 -13 14 -13 6 0 8 4 5 8 -3
4 11 9 30 9 20 1 33 -2 29 -5 -6 -6 71 -36 123 -49 17 -4 21 -10 17 -24 -4
-11 -2 -19 5 -19 6 0 8 5 5 10 -8 13 1 13 25 0 20 -11 17 -45 -4 -37 -49 19
-54 18 -52 -7 1 -22 5 -24 31 -19 17 3 38 10 47 14 24 13 60 10 81 -5 25 -19
7 -54 -31 -61 -49 -11 -56 -13 -107 -32 -52 -19 -62 -35 -50 -80 3 -14 10 -21
17 -17 8 5 9 2 5 -9 -3 -10 -3 -17 2 -17 5 0 11 -21 14 -47 4 -38 2 -50 -13
-60 -15 -10 -18 -25 -16 -78 1 -55 -1 -65 -16 -65 -9 0 -20 5 -23 10 -3 6 -1
10 4 10 7 0 11 23 11 55 0 30 -4 55 -10 55 -5 0 -7 -7 -4 -15 4 -9 0 -15 -7
-15 -11 0 -11 -3 1 -10 12 -8 9 -10 -12 -10 -15 0 -31 -8 -37 -17 -5 -10 -13
-14 -18 -9 -4 5 -2 11 5 13 6 3 12 11 12 19 0 8 5 14 11 14 8 0 8 5 -1 15 -9
10 -9 15 -1 15 6 0 11 7 11 15 0 9 9 15 22 15 32 0 18 6 -30 14 l-43 6 2 -79
c3 -133 22 -126 -297 -128 -207 -1 -276 2 -301 12 l-32 14 -3 138 c-2 110 -5
129 -12 96 -5 -24 -12 -43 -16 -43 -5 0 -15 -3 -24 -6 -13 -5 -16 1 -16 26 0
17 -4 29 -9 25 -6 -3 -10 -171 -11 -413 -1 -380 -2 -408 -19 -425 -17 -17 -40
-18 -299 -18 -276 0 -322 5 -322 33 0 6 8 4 18 -5 16 -15 52 -17 296 -17 171
0 285 4 297 10 17 10 19 23 18 178 0 140 -2 164 -13 149 -17 -23 -40 -23 -31
1 3 9 11 38 17 65 6 26 15 47 19 47 4 0 8 123 9 273 l1 274 -38 16 c-69 30
-127 39 -258 42 l-130 3 -27 -29 c-15 -16 -36 -29 -47 -29 -10 0 -44 -10 -75
-21 l-56 -22 0 -198 c0 -121 4 -200 10 -204 6 -3 10 1 10 10 0 28 88 112 142
135 73 31 232 33 299 3 71 -32 159 -120 159 -159 0 -18 -58 12 -93 49 -35 38
-36 38 -8 4 17 -21 31 -42 31 -47 0 -22 -19 -17 -50 15 -18 18 -46 39 -61 46
-16 6 -29 16 -29 21 0 5 -4 7 -9 3 -5 -3 -28 1 -49 8 -27 9 -46 11 -57 4 -9
-5 -32 -7 -50 -5 -19 2 -32 1 -29 -3 4 -8 -77 -64 -88 -61 -5 1 -7 -1 -6 -6 0
-4 -6 -24 -15 -44 -10 -21 -17 -42 -17 -48 0 -6 -3 -9 -7 -7 -5 3 -9 -10 -9
-29 -1 -19 2 -34 6 -34 4 0 10 -11 12 -25 3 -13 1 -22 -3 -19 -5 3 -9 -1 -10
-8 -1 -7 -7 7 -15 32 -31 98 18 202 120 255 75 38 175 41 249 8 26 -12 45 -18
42 -13 -14 23 -118 50 -193 50 -67 0 -84 -4 -130 -30 -64 -37 -107 -95 -122
-163 -11 -49 -10 -62 11 -147 3 -10 -3 -14 -18 -13 -22 3 -22 2 -22 -143 0
-81 -3 -149 -6 -152 -3 -3 -5 150 -6 339 0 299 -2 339 -14 304 -7 -22 -13 -35
-14 -28 -1 7 -8 10 -16 7 -10 -4 -15 0 -16 12 -1 14 -3 13 -9 -6 -4 -14 -8
-166 -9 -337 l-1 -313 -23 -15 c-22 -14 -205 -19 -549 -15 -65 0 -68 10 -68
206 l0 174 25 6 c14 3 25 9 25 13 0 4 17 7 38 6 20 -1 49 4 64 12 15 7 37 13
48 13 16 0 20 4 15 19 -10 31 12 34 23 2 7 -20 19 -30 41 -34 34 -7 64 0 55
14 -3 5 -1 9 5 9 5 0 19 -13 31 -30 12 -16 27 -30 35 -30 7 0 27 18 43 41 17
22 33 36 36 30 4 -5 2 -12 -4 -16 -5 -3 -10 -11 -10 -16 0 -12 32 -8 42 6 5 6
8 5 8 -3 0 -7 -7 -15 -15 -18 -14 -6 -13 -8 2 -21 10 -8 12 -12 6 -8 -18 8
-17 -20 1 -34 10 -9 16 -8 26 4 7 8 21 15 31 15 11 0 19 5 19 10 0 6 -4 10
-10 10 -5 0 -10 6 -10 13 0 7 -9 23 -20 35 -12 12 -16 22 -11 22 5 0 13 -5 16
-10 4 -7 13 -7 26 0 11 6 23 9 28 6 12 -8 18 41 20 161 2 95 1 102 -16 97 -17
-5 -17 -5 0 9 11 9 17 28 17 56 0 34 -3 41 -20 41 -12 0 -20 -7 -20 -17 0 -9
-19 -34 -42 -55 -24 -22 -43 -47 -43 -56 0 -9 -14 -23 -30 -31 -73 -35 -91
-46 -112 -70 -19 -19 -26 -22 -36 -12 -9 10 -8 15 7 26 23 18 11 38 -17 29
-20 -6 -20 -5 -8 10 25 30 2 30 -26 0 -24 -25 -28 -27 -31 -11 -5 23 26 48 54
45 12 -2 29 4 40 12 10 8 15 10 11 3 -4 -6 -2 -15 4 -19 6 -3 15 -1 20 7 12
19 -10 41 -34 33 -11 -4 -17 -2 -14 3 4 6 -4 8 -20 5 -18 -3 -24 -1 -19 7 4 6
1 11 -6 11 -21 -1 -45 -24 -40 -39 7 -21 -46 -65 -62 -52 -16 13 -27 4 -19
-15 3 -8 0 -14 -6 -14 -6 0 -11 5 -11 10 0 6 -7 10 -15 10 -9 0 -15 -7 -13
-16 5 -26 -19 -28 -27 -2 -5 14 -3 24 5 26 9 3 5 11 -11 24 l-24 20 30 -7 c16
-4 33 -11 36 -17 4 -7 9 -7 13 0 3 6 15 8 26 5 11 -3 27 -2 36 1 16 6 15 8 -2
21 -14 10 -15 14 -5 15 8 0 11 3 8 7 -10 9 31 35 43 28 6 -4 9 -1 8 7 -2 7
-27 28 -55 47 -55 35 -69 57 -30 46 31 -10 100 -55 115 -77 7 -10 17 -18 23
-18 23 0 -59 73 -110 97 -31 15 -60 33 -64 40 -12 20 -25 16 -29 -9 -2 -19
-13 -24 -68 -35 -35 -7 -70 -11 -77 -9 -24 10 -22 -12 2 -28 31 -20 33 -56 4
-75 -18 -11 -23 -11 -30 0 -6 11 -9 10 -14 -3 -8 -20 -45 -35 -110 -43 -89
-11 -136 -40 -151 -91 -3 -14 -16 -24 -32 -27 -33 -6 -39 -2 -23 17 11 13 3
15 -53 15 -59 0 -66 -2 -66 -20 0 -12 -7 -19 -20 -19 -14 0 -20 7 -20 21 0 11
-5 17 -10 14 -6 -4 -8 -11 -5 -16 4 -5 1 -9 -4 -9 -6 0 -11 7 -11 16 0 11 -8
14 -27 12 -24 -3 -28 -7 -27 -32 1 -28 0 -28 -12 -11 -8 10 -14 24 -14 29 0
13 -59 42 -77 38 -18 -4 -22 24 -20 158 2 120 3 125 24 128 14 2 26 -4 33 -17
10 -20 19 -21 185 -21 160 0 175 2 184 19 9 15 27 20 111 25 72 6 100 11 100
21 0 7 7 18 15 25 9 7 14 19 11 26 -4 10 1 11 20 4 34 -13 54 -12 31 1 -14 8
-16 14 -6 25 9 11 8 19 -6 34 -10 11 -14 20 -9 19 15 -1 50 -18 39 -18 -5 -1
-11 -12 -11 -26 -2 -33 30 -37 96 -10 19 7 44 16 55 20 16 6 17 8 5 13 -25 9
-40 35 -27 45 14 9 -48 -1 -78 -14 l-20 -8 20 -1 c16 0 17 -2 5 -10 -10 -6
-20 -5 -30 4 -8 8 -25 17 -37 20 -14 5 -20 12 -16 22 3 8 0 20 -6 28 -8 10 -9
26 -2 55 5 22 6 42 2 43 -24 8 508 13 1224 10 641 -2 841 -6 847 -15z m-2435
-19 c14 -13 29 -31 34 -40 11 -21 1 -51 -16 -44 -7 2 -18 -1 -24 -7 -14 -14
-128 -14 -142 0 -6 6 -18 9 -25 6 -14 -5 -18 7 -14 37 2 19 39 60 65 71 33 14
95 3 122 -23z m2758 -24 c46 -44 50 -48 15 -22 -25 20 -61 45 -80 57 -27 16
-30 21 -15 21 11 0 47 -26 80 -56z m70 -6 c43 -55 49 -78 23 -78 -6 0 -8 3 -4
7 3 4 -21 35 -55 69 -56 56 -59 62 -36 62 19 0 37 -15 72 -60z m14 32 c11 -24
11 -24 -3 -6 -9 11 -16 24 -16 30 0 12 5 7 19 -24z m160 -9 c-6 -18 -13 -30
-15 -28 -2 2 1 18 7 36 6 18 13 30 15 28 2 -2 -1 -18 -7 -36z m-339 8 c0 -5
-7 -9 -15 -9 -15 0 -20 12 -9 23 8 8 24 -1 24 -14z m579 -3 c-2 -2 -29 -17
-59 -33 -30 -16 -68 -38 -85 -48 -16 -11 -26 -14 -22 -8 9 14 146 93 161 93 5
0 7 -2 5 -4z m-2894 -16 c-3 -5 -10 -10 -16 -10 -5 0 -9 5 -9 10 0 6 7 10 16
10 8 0 12 -4 9 -10z m3023 -20 c-2 -20 -7 -29 -15 -26 -7 3 -13 1 -13 -5 0 -5
7 -12 15 -15 9 -4 15 -19 15 -35 0 -24 -4 -29 -25 -29 -28 0 -35 19 -7 21 13
1 13 2 2 5 -11 3 -15 20 -16 59 -2 52 0 55 22 55 21 0 24 -4 22 -30z m-448
-23 c0 -31 0 -31 -15 -10 -8 12 -12 28 -9 37 9 25 24 8 24 -27z m140 19 c0 -3
-4 -8 -10 -11 -5 -3 -10 -1 -10 4 0 6 5 11 10 11 6 0 10 -2 10 -4z m-2730 -82
c0 -8 -4 -12 -10 -9 -5 3 -10 10 -10 16 0 5 5 9 10 9 6 0 10 -7 10 -16z m184
-21 c9 -21 -20 -45 -49 -41 -11 1 -26 -1 -32 -5 -8 -5 -13 -3 -13 6 0 8 12 18
26 21 17 5 24 12 20 21 -4 11 2 15 18 15 13 0 27 -8 30 -17z m2694 -7 l48 -24
-2 -126 c-1 -69 2 -128 7 -132 5 -3 9 -11 9 -18 0 -9 -18 -11 -65 -8 -79 5
-119 -3 -111 -23 3 -9 0 -15 -8 -15 -22 0 -26 -24 -26 -140 0 -149 6 -155 131
-154 73 1 88 -2 75 -11 -19 -15 -23 -124 -4 -143 9 -9 9 -15 0 -24 -9 -9 -9
-15 0 -26 9 -10 9 -15 1 -20 -7 -4 -13 -25 -16 -47 l-4 -40 -1 44 c-2 43 -2
43 -33 37 -17 -3 -38 -6 -45 -6 -8 0 -14 -4 -14 -9 0 -5 9 -7 20 -4 26 7 37
-21 17 -42 -19 -19 -39 -20 -35 -1 2 8 -13 28 -32 45 -32 28 -33 31 -13 31 12
0 47 8 78 17 l56 17 -113 22 c-117 23 -161 21 -228 -11 -27 -12 -60 -9 -60 6
0 16 -26 10 -44 -10 -13 -15 -14 -20 -4 -24 7 -2 20 -1 29 4 11 6 21 4 29 -6
20 -24 5 -30 -70 -27 -55 3 -73 7 -77 20 -9 25 -34 52 -43 47 -5 -3 -6 4 -3
15 3 11 14 20 24 20 11 0 25 14 35 33 10 17 24 37 32 43 11 8 12 13 3 18 -9 6
-9 11 0 22 16 19 -7 18 -41 -1 -32 -18 -91 -19 -114 -2 -18 13 -18 14 -1 21
17 6 16 8 -5 31 l-23 24 35 -5 c19 -3 52 -1 74 5 33 9 41 8 52 -6 16 -23 15
-30 -5 -38 -41 -15 -81 -15 -87 1 -4 11 -2 15 8 11 8 -3 19 0 25 7 8 10 4 12
-18 8 -21 -3 -30 -11 -34 -28 -6 -32 20 -39 74 -19 24 9 54 19 66 22 l22 5
-25 23 c-13 12 -24 25 -24 28 0 14 60 17 82 5 16 -10 53 -13 126 -10 l102 3 0
41 c0 35 -2 39 -15 28 -8 -7 -15 -9 -15 -5 0 4 8 14 18 22 10 8 13 16 7 19 -6
2 -9 20 -7 39 3 24 0 35 -9 35 -8 0 -5 6 7 15 19 14 19 15 -3 21 -13 4 -20 11
-16 20 3 8 0 14 -6 14 -14 0 -15 -86 -1 -95 18 -11 0 -25 -31 -25 -29 0 -39
13 -19 25 6 3 10 26 10 51 0 41 -19 65 -21 27 -1 -12 -4 -9 -8 7 -5 14 -6 28
-4 33 6 11 88 8 99 -3 8 -8 19 -8 38 0 15 5 59 10 97 10 47 0 68 3 64 11 -4 6
-14 8 -22 5 -10 -4 -13 -1 -9 12 3 9 8 30 12 47 4 16 13 36 21 43 19 19 17
126 -2 146 -9 9 -35 20 -58 26 -61 16 -65 18 -34 19 15 1 49 -10 75 -23z
m-223 -6 l30 -8 -35 -2 c-82 -5 -119 -5 -112 2 16 15 74 19 117 8z m-2620 -9
c3 -5 1 -12 -4 -15 -5 -3 -11 1 -15 9 -6 16 9 21 19 6z m-38 -27 c-3 -3 -12
-4 -19 -1 -8 3 -5 6 6 6 11 1 17 -2 13 -5z m2532 -32 c2 41 21 45 21 4 0 -20
5 -36 10 -36 6 0 10 6 10 13 0 8 3 8 8 2 9 -14 52 -17 52 -4 0 5 5 9 11 9 6 0
8 -7 5 -16 -4 -10 -1 -14 6 -12 7 3 13 16 13 31 1 30 15 50 16 21 0 -16 2 -15
10 5 12 30 18 25 21 -18 2 -33 18 -56 18 -27 0 9 5 16 10 16 6 0 10 -4 10 -9
0 -6 8 -10 18 -9 9 0 28 -3 41 -6 23 -5 23 -4 17 37 -10 60 13 34 25 -29 10
-52 -3 -150 -22 -169 -7 -7 -8 1 -3 29 5 30 4 37 -6 31 -18 -11 -90 -13 -90
-1 0 5 -3 6 -7 2 -8 -8 -10 -13 -12 -46 -2 -30 -21 -24 -22 8 -2 23 -2 24 -6
5 -6 -31 -21 -29 -18 1 3 23 0 25 -44 23 -26 0 -52 3 -59 7 -8 5 -12 -2 -12
-23 0 -54 -20 -33 -22 22 l-1 52 -7 -55 c-6 -52 -7 -53 -14 -23 -5 18 -13 30
-18 27 -16 -10 -88 -11 -88 -2 0 5 -4 7 -8 4 -5 -3 -7 -20 -5 -38 4 -30 3 -31
-9 -13 -18 28 -18 180 1 197 11 11 13 9 9 -15 -3 -15 -1 -30 3 -33 5 -3 9 2 9
10 0 9 5 16 10 16 6 0 10 -4 10 -9 0 -6 8 -9 18 -9 9 0 22 0 27 -2 25 -6 35 3
42 38 l7 37 7 -35 c5 -30 7 -31 8 -8z m-2760 6 c17 -43 -8 -49 -189 -47 -91 1
-172 6 -181 10 -11 6 -15 17 -12 34 l5 25 184 0 c182 0 185 0 193 -22z m1661
7 c0 -8 -4 -15 -10 -15 -5 0 -10 7 -10 15 0 8 5 15 10 15 6 0 10 -7 10 -15z
m-459 -15 c6 0 8 -9 5 -20 -3 -11 -9 -29 -12 -40 -4 -16 -1 -20 16 -20 13 0
24 8 27 20 4 15 13 20 37 18 17 -1 36 -6 43 -10 7 -6 20 -5 33 2 12 7 31 10
41 7 15 -4 19 0 19 19 0 30 30 33 37 4 4 -14 11 -19 23 -15 10 3 21 2 24 -3 3
-5 24 -9 46 -10 23 -1 46 -4 51 -8 13 -7 11 -48 -2 -61 -9 -9 -7 -10 10 -6 13
3 21 1 21 -7 0 -6 -10 -15 -22 -18 -23 -6 -23 -6 2 -13 l25 -6 -25 -11 c-19
-8 -21 -11 -7 -11 10 -1 15 -5 12 -11 -7 -11 -75 -7 -95 5 -10 6 -12 4 -7 -8
5 -13 2 -15 -17 -8 -13 5 -29 5 -39 0 -21 -12 -59 23 -51 46 4 8 1 15 -5 15
-6 0 -11 -9 -11 -19 0 -21 -25 -51 -41 -51 -6 0 -7 5 -3 12 5 8 2 9 -11 5 -9
-4 -23 -3 -30 3 -9 8 -15 8 -20 0 -10 -16 -25 -12 -18 6 5 14 3 15 -17 4 -20
-11 -25 -10 -37 6 -7 10 -13 21 -13 26 0 4 -8 8 -17 8 -15 0 -15 -2 2 -14 18
-13 18 -14 -3 -20 -12 -4 -22 -12 -22 -17 0 -5 -5 -9 -11 -9 -6 0 -9 17 -7 43
3 42 3 42 47 45 31 2 49 -2 63 -15 21 -18 21 -18 9 5 l-12 22 73 -6 c40 -3 85
-5 101 -5 19 0 27 -5 27 -16 0 -13 3 -14 12 -5 15 15 51 15 66 0 9 -9 12 -8
12 5 0 9 5 17 11 17 6 0 5 5 -3 13 -7 7 -33 12 -61 11 -35 -1 -51 3 -60 16 -8
12 -18 15 -32 9 -19 -7 -19 -8 3 -8 13 -1 21 -5 18 -10 -4 -5 -45 -9 -94 -8
-48 0 -109 -3 -136 -7 -41 -6 -48 -5 -43 7 3 9 9 33 13 54 9 49 13 56 31 49 8
-3 19 -6 24 -6z m406 -19 c14 -9 8 -10 -32 -7 -27 3 -62 5 -77 5 -16 1 -28 6
-28 12 0 15 109 6 137 -10z m-499 -106 c-2 -54 -7 -100 -13 -102 -6 -2 -9 37
-7 108 2 73 7 108 13 102 5 -5 8 -53 7 -108z m557 105 c3 -5 1 -10 -4 -10 -6
0 -11 5 -11 10 0 6 2 10 4 10 3 0 8 -4 11 -10z m1454 -27 c-1 -34 -2 -35 -9
-13 -11 36 -11 50 0 50 6 0 10 -17 9 -37z m-3391 -31 c2 -7 -6 -12 -17 -12
-21 0 -27 11 -14 24 9 9 26 2 31 -12z m32 -3 c0 -5 -4 -9 -10 -9 -5 0 -10 7
-10 16 0 8 5 12 10 9 6 -3 10 -10 10 -16z m65 11 c7 12 25 4 25 -11 0 -16 -53
-6 -58 11 -4 13 -3 13 10 2 11 -9 18 -10 23 -2z m80 0 c3 -5 11 -10 16 -10 6
0 7 5 3 12 -4 7 -3 8 4 4 23 -14 12 -26 -23 -26 -33 0 -43 8 -28 23 9 10 21 9
28 -3z m1755 -16 c0 -8 -5 -12 -10 -9 -6 4 -8 11 -5 16 9 14 15 11 15 -7z
m-1260 -64 c0 -5 -4 -10 -10 -10 -5 0 -10 5 -10 10 0 6 5 10 10 10 6 0 10 -4
10 -10z m-55 -20 c3 -5 1 -10 -4 -10 -6 0 -11 5 -11 10 0 6 2 10 4 10 3 0 8
-4 11 -10z m170 -15 c29 -13 30 -13 5 -15 l-25 -1 25 -14 c22 -12 23 -14 8
-20 -26 -10 -48 1 -48 26 0 15 -4 19 -16 15 -9 -3 -21 -3 -27 1 -7 4 -3 9 9
14 27 11 35 10 69 -6z m1152 -15 c1 -10 -2 -22 -8 -25 -16 -10 -21 0 -13 29 7
29 16 27 21 -4z m1295 -2 c-7 -7 -12 -8 -12 -2 0 14 12 26 19 19 2 -3 -1 -11
-7 -17z m-272 -17 c0 -6 -4 -13 -10 -16 -5 -3 -10 -26 -10 -50 0 -24 5 -47 10
-50 25 -15 5 -25 -51 -25 -48 0 -60 3 -56 14 13 34 18 104 8 110 -26 16 -7 26
49 26 33 0 60 -4 60 -9z m99 0 c22 -14 27 -104 6 -124 -37 -38 -85 -9 -85 51
0 63 39 98 79 73z m-2479 -71 c-28 -22 -39 -24 -59 -11 -11 7 -6 12 20 19 55
16 67 14 39 -8z m2787 -6 c3 -9 -4 -24 -18 -38 l-24 -22 -12 24 c-10 19 -10
28 -2 38 16 19 48 18 56 -2z m-2774 -27 c2 -7 -4 -23 -14 -36 -11 -13 -19 -20
-19 -15 0 4 8 16 18 27 16 19 16 20 0 14 -18 -6 -32 5 -21 17 11 10 31 7 36
-7z m-180 -22 c-17 -13 -17 -14 2 -13 37 3 95 -32 95 -57 0 -34 -18 -43 -105
-48 -44 -3 -66 -3 -50 -1 28 5 55 27 55 46 0 4 -7 5 -15 2 -10 -4 -15 0 -15
15 0 22 -14 28 -25 11 -3 -5 -15 -10 -26 -10 -12 0 -19 -7 -19 -20 0 -11 -4
-20 -10 -20 -19 0 -11 69 10 90 22 22 70 27 70 8 0 -8 6 -6 17 4 9 10 20 15
25 12 5 -3 1 -12 -9 -19z m414 -20 c-9 -8 -21 -15 -29 -15 -7 0 -2 10 12 24
27 25 42 17 17 -9z m875 25 c21 -6 43 -20 48 -31 6 -11 15 -17 20 -14 10 6 40
-4 40 -14 0 -4 -17 -5 -37 -3 -22 3 -34 1 -30 -4 5 -5 19 -9 30 -9 12 0 21 -6
20 -12 -2 -7 4 -13 13 -13 9 0 22 -7 29 -16 10 -15 14 -14 38 10 30 30 47 33
47 8 0 -24 -19 -42 -37 -35 -8 3 -19 0 -23 -7 -6 -10 -12 -11 -22 -4 -7 6 -35
12 -61 13 -37 2 -57 -3 -85 -22 -55 -36 -86 -51 -78 -38 4 6 1 11 -7 11 -21 0
-28 -26 -11 -40 19 -16 18 -30 -2 -30 -9 0 -18 8 -21 18 -3 13 -15 18 -40 19
-22 1 -44 9 -56 22 l-21 21 36 0 c20 0 40 -4 43 -10 3 -5 14 -10 23 -10 15 1
15 2 -2 15 -13 10 -17 21 -12 38 7 30 64 92 92 101 16 5 20 12 17 26 -6 23 -2
24 49 10z m-84 -17 c-2 -10 -10 -19 -18 -19 -8 -1 -21 -2 -27 -3 -7 0 -30 -17
-52 -36 -57 -52 -79 -48 -39 7 35 50 144 90 136 51z m1472 -13 c0 -5 -5 -10
-11 -10 -5 0 -7 5 -4 10 3 6 8 10 11 10 2 0 4 -4 4 -10z m277 -16 c8 -21 -19
-46 -40 -38 -17 6 -23 35 -10 47 12 13 44 7 50 -9z m-2597 -4 c0 -5 -4 -10 -9
-10 -6 0 -13 5 -16 10 -3 6 1 10 9 10 9 0 16 -4 16 -10z m-763 -6 c-3 -3 -12
-4 -19 -1 -8 3 -5 6 6 6 11 1 17 -2 13 -5z m133 -9 c0 -8 -7 -15 -15 -15 -16
0 -20 12 -8 23 11 12 23 8 23 -8z m40 -11 c0 -14 -4 -23 -10 -19 -5 3 -10 15
-10 26 0 10 5 19 10 19 6 0 10 -12 10 -26z m536 15 c3 -5 -2 -9 -11 -9 -9 0
-19 -9 -22 -20 -3 -11 -10 -20 -15 -20 -6 0 -8 7 -4 15 3 8 2 15 -2 15 -5 0
-17 6 -28 14 -17 13 -15 14 28 14 27 0 50 -4 54 -9z m-346 -9 c0 -5 -4 -10
-10 -10 -5 0 -10 5 -10 10 0 6 5 10 10 10 6 0 10 -4 10 -10z m1848 -10 c-5
-23 -38 -25 -38 -3 0 12 7 19 20 19 13 0 20 -6 18 -16z m62 5 c0 -5 -11 -11
-25 -11 -14 -1 -25 4 -25 11 0 7 11 12 25 11 14 0 25 -5 25 -11z m23 -1 c-4
-12 -2 -15 8 -12 8 3 13 11 12 17 -2 6 6 11 17 11 11 0 20 -7 20 -15 0 -8 5
-15 10 -15 6 0 10 7 10 15 0 8 5 15 11 15 6 0 9 -8 7 -17 -3 -14 -14 -18 -53
-18 -39 0 -50 4 -53 18 -2 9 1 17 7 17 6 0 8 -7 4 -16z m124 -6 c-3 -8 -6 -5
-6 6 -1 11 2 17 5 13 3 -3 4 -12 1 -19z m121 12 c-2 -20 4 -21 17 -4 13 17 14
18 15 1 0 -23 -26 -33 -45 -17 -11 9 -15 9 -15 1 0 -7 -5 -9 -12 -4 -7 4 -21
6 -30 5 -11 -2 -18 3 -18 12 0 11 11 14 44 13 25 -1 44 -4 44 -7z m499 1 c-1
-3 3 -6 8 -6 6 0 9 3 7 8 -3 10 50 -3 63 -15 6 -6 1 -9 -15 -7 -14 2 -29 1
-35 -3 -5 -3 -28 -5 -50 -4 -29 1 -41 6 -43 18 -3 14 4 17 32 16 19 -1 34 -4
33 -7z m-2227 -30 c0 -9 5 -22 12 -29 9 -9 6 -12 -15 -12 -17 0 -27 -5 -27
-14 0 -17 -51 -30 -80 -21 -20 6 -26 31 -12 50 12 16 96 53 110 48 6 -3 12
-13 12 -22z m2340 19 c0 -5 -4 -10 -10 -10 -5 0 -10 5 -10 10 0 6 5 10 10 10
6 0 10 -4 10 -10z m-2114 -9 c-7 -11 -76 -22 -90 -13 -6 4 2 9 19 13 45 10 77
10 71 0z m1674 -1 c0 -5 -2 -10 -4 -10 -3 0 -8 5 -11 10 -3 6 -1 10 4 10 6 0
11 -4 11 -10z m-2675 -10 c3 -6 -1 -7 -9 -4 -18 7 -21 14 -7 14 6 0 13 -4 16
-10z m1075 -9 c0 -15 -15 -21 -38 -14 -32 8 -27 23 8 23 17 0 30 -4 30 -9z
m1770 -1 c8 -5 12 -11 9 -14 -3 -3 -14 1 -25 9 -21 16 -8 20 16 5z m-2220 -30
c0 -4 -11 -5 -24 -3 -20 4 -22 8 -13 18 12 13 37 3 37 -15z m365 20 c3 -5 -1
-10 -10 -10 -9 0 -13 5 -10 10 3 6 8 10 10 10 2 0 7 -4 10 -10z m172 -9 c0
-11 -4 -18 -7 -16 -4 2 -18 -2 -33 -10 -35 -18 -34 -10 1 20 33 30 41 31 39 6z
m1087 4 c-4 -8 -8 -15 -10 -15 -2 0 -4 7 -4 15 0 8 4 15 10 15 5 0 7 -7 4 -15z
m-2026 -11 c13 -2 20 -9 17 -14 -3 -5 9 -11 27 -13 18 -2 -78 -5 -214 -5
l-248 -2 1 23 c0 12 3 16 6 10 3 -10 38 -13 126 -13 101 1 118 3 100 13 -18
10 -6 12 70 9 51 -1 102 -5 115 -8z m657 6 c3 -5 -3 -10 -14 -10 -12 0 -21 5
-21 10 0 6 6 10 14 10 8 0 18 -4 21 -10z m585 -4 c0 -16 -51 -29 -64 -16 -14
14 4 30 35 30 18 0 29 -5 29 -14z m1860 -1 c18 -21 5 -45 -25 -45 -27 0 -41
20 -31 45 7 19 40 19 56 0z m-1119 -10 c25 -14 28 -18 18 -36 -6 -11 -8 -23
-5 -26 8 -8 27 7 21 17 -3 5 -1 11 5 15 6 4 8 11 5 16 -4 5 33 9 89 9 60 0 97
4 102 11 5 8 10 6 16 -5 5 -9 19 -16 32 -16 45 0 129 -32 153 -58 14 -15 31
-26 39 -24 15 3 17 -2 8 -35 -4 -14 -14 -23 -25 -23 -18 0 -19 -10 -19 -145 0
-122 2 -145 15 -145 18 0 19 -14 2 -28 -16 -14 -97 -27 -97 -17 0 5 7 17 16
27 15 16 15 18 1 24 -12 4 -13 12 -7 34 7 23 4 32 -16 49 -19 17 -29 19 -44
11 -22 -12 -90 -14 -90 -2 0 4 -30 8 -67 9 -38 1 -84 4 -103 6 -19 3 -48 5
-64 6 -19 1 -27 5 -23 15 3 7 1 18 -4 23 -6 6 -4 24 4 49 13 36 7 104 -9 104
-4 0 -4 -7 -1 -15 9 -23 -12 -29 -34 -9 -17 15 -19 15 -19 1 0 -17 17 -31 37
-32 7 0 13 -4 13 -10 0 -12 -7 -12 -47 4 -35 14 -51 40 -31 53 9 5 4 8 -13 8
-18 0 -29 -8 -37 -25 -9 -20 -9 -25 2 -25 7 0 21 -9 31 -20 12 -13 21 -17 25
-10 5 8 15 7 34 -1 43 -20 24 -38 -44 -43 -34 -2 -50 -14 -44 -31 5 -13 8 -13
21 0 8 8 23 15 32 15 21 0 44 -23 34 -34 -4 -4 3 -9 15 -13 13 -3 19 -10 14
-17 -4 -6 -8 -27 -9 -46 -1 -19 -5 -51 -10 -70 -7 -28 -14 -36 -37 -38 -15 -2
-38 4 -52 13 -22 14 -24 21 -24 105 0 82 -2 90 -19 90 -31 0 -34 18 -4 22 23
2 27 7 25 28 -2 14 -10 32 -18 41 -8 8 -14 22 -14 29 0 22 31 49 48 43 9 -4
13 -2 9 4 -4 6 -20 13 -37 16 -27 6 -43 27 -20 27 15 0 12 21 -4 39 -13 15
-10 16 32 17 75 1 112 6 112 15 0 7 18 14 43 18 4 0 21 -6 38 -14z m-484 -16
c6 -6 29 -12 51 -12 39 -2 40 -3 22 -19 -11 -10 -22 -18 -25 -18 -4 0 -14 -7
-23 -16 -15 -15 -15 -16 3 -11 52 14 75 17 75 8 0 -10 -40 -25 -96 -36 -21 -4
-31 -12 -30 -22 0 -9 -5 -18 -13 -21 -9 -3 -11 1 -6 17 3 11 2 21 -3 21 -21 0
-20 -39 2 -54 21 -15 21 -15 -9 -15 -32 0 -70 22 -70 42 0 7 -11 11 -23 10
-13 -2 -31 1 -41 7 -12 6 -22 5 -31 -3 -10 -10 -10 -8 0 9 10 17 21 20 59 18
69 -3 113 6 107 22 -3 8 0 14 6 14 6 0 9 2 6 5 -3 3 -22 -2 -42 -10 -34 -14
-38 -14 -53 1 -16 16 -16 16 2 10 14 -4 34 5 64 29 48 39 52 40 68 24z m-1268
-73 c15 -18 15 -18 -6 -7 -13 6 -23 17 -23 24 0 7 -14 12 -30 13 -17 1 -30 -3
-30 -7 0 -5 5 -9 11 -9 8 0 8 -5 -1 -15 -14 -17 0 -21 17 -4 14 14 29 5 36
-21 4 -16 0 -20 -17 -20 -12 0 -27 5 -34 12 -8 8 -15 8 -28 -2 -15 -13 -14
-15 3 -21 12 -5 14 -8 3 -8 -24 -1 -37 12 -44 45 -9 42 20 69 69 61 21 -4 37
-1 42 6 5 8 9 5 11 -8 2 -11 11 -29 21 -39z m-151 33 c-10 -5 -31 -30 -48 -54
-25 -36 -37 -45 -60 -45 -15 0 -31 -6 -33 -12 -3 -7 -6 -1 -6 14 -1 29 -16 46
-24 26 -3 -11 -9 -11 -26 0 -19 11 -21 10 -21 -10 0 -12 -3 -18 -7 -14 -5 4
-8 13 -8 19 0 7 -11 12 -25 12 -19 0 -25 -5 -26 -23 -2 -33 -14 -40 -14 -9 0
15 -4 27 -10 27 -5 0 -10 -4 -10 -10 0 -5 -10 -9 -22 -9 -17 1 -19 2 -5 6 25
7 21 25 -5 21 -18 -2 -23 -9 -23 -35 0 -24 -3 -29 -12 -21 -7 6 -13 21 -13 34
0 17 -6 24 -19 24 -11 0 -23 5 -27 11 -3 6 -17 9 -30 6 -13 -2 -24 -1 -24 2 0
3 -3 16 -6 29 l-6 22 263 0 c182 -1 259 -4 247 -11z m1190 -57 c5 -15 -18 -15
-55 -1 -26 10 -26 12 -8 19 23 8 57 -2 63 -18z m338 -27 c-5 -21 -10 -24 -26
-15 -24 13 -33 13 -25 0 8 -12 3 -13 -29 0 -38 14 -32 30 12 30 20 0 44 4 52
10 20 12 24 6 16 -25z m942 -127 c16 3 47 -26 38 -35 -4 -4 -19 -2 -34 3 -27
9 -27 11 -28 99 l-1 90 6 -80 c4 -58 10 -79 19 -77z m-2477 129 c-1 -12 -15
-9 -19 4 -3 6 1 10 8 8 6 -3 11 -8 11 -12z m1135 -9 c4 -7 -2 -8 -17 -3 -22 7
-23 7 -9 -10 16 -19 21 -20 -52 1 -22 7 -22 7 -3 14 31 11 74 10 81 -2z
m-1442 -24 c5 -14 4 -15 -9 -4 -17 14 -19 20 -6 20 5 0 12 -7 15 -16z m150 1
c4 -13 2 -14 -14 -5 -23 13 -26 20 -6 20 8 0 16 -7 20 -15z m260 -10 c-4 -8
-9 -15 -13 -15 -4 0 -8 7 -8 15 0 8 6 15 13 15 8 0 11 -6 8 -15z m1096 5 c0
-5 13 -7 30 -3 19 3 30 1 30 -6 0 -17 -48 -25 -65 -11 -17 14 -20 30 -5 30 6
0 10 -4 10 -10z m384 -15 c6 -17 -9 -29 -24 -20 -5 3 -10 15 -10 25 0 22 25
18 34 -5z m-1532 1 c10 -7 15 -16 11 -19 -3 -4 3 -7 15 -7 12 0 22 -4 22 -10
0 -12 -50 -13 -66 -2 -6 4 -14 17 -18 30 -8 25 8 29 36 8z m1118 2 c0 -17 34
-87 43 -88 4 0 7 8 7 18 0 14 2 15 10 2 13 -20 13 -33 0 -25 -5 3 -10 -2 -10
-11 0 -14 -3 -15 -12 -6 -10 10 -16 8 -28 -8 l-16 -21 -26 20 c-14 12 -31 21
-37 21 -6 0 -8 7 -5 15 5 11 -1 13 -31 8 -36 -6 -37 -5 -30 18 10 34 16 38 71
53 65 18 64 18 64 4z m165 -7 c3 -6 -5 -15 -17 -22 l-22 -12 23 -8 c12 -5 28
-22 34 -39 9 -23 17 -30 39 -30 27 0 33 8 28 39 -1 8 4 12 14 8 17 -7 77 31
84 52 3 10 -5 7 -23 -7 -35 -28 -61 -28 -68 -1 -7 25 18 37 44 20 12 -7 19 -7
19 -1 0 12 20 13 38 2 9 -7 10 -15 3 -35 -7 -17 -7 -28 -1 -32 6 -4 10 -15 10
-26 0 -19 -1 -19 -22 -5 -12 9 -29 16 -38 16 -8 -1 0 -7 18 -15 25 -11 32 -20
32 -42 0 -15 -5 -35 -10 -43 -8 -13 -12 -12 -25 8 -9 12 -21 19 -27 16 -7 -5
-9 -1 -5 9 3 9 0 18 -9 21 -12 5 -14 1 -9 -15 6 -19 4 -21 -19 -17 -15 3 -29
1 -32 -4 -4 -6 -17 3 -31 18 -23 29 -24 29 -21 5 2 -13 -3 -26 -10 -29 -7 -2
-11 2 -10 10 2 7 -4 12 -13 10 -11 -1 -20 11 -28 38 -6 22 -16 40 -21 40 -18
0 -10 17 13 28 22 12 21 12 -5 9 -36 -3 -32 15 6 29 41 15 54 16 61 5z m-1512
-16 c29 4 72 2 97 -3 40 -9 42 -10 15 -12 -23 -2 -18 -5 20 -10 28 -4 -59 -8
-197 -8 -227 -2 -248 -1 -248 15 0 13 3 14 12 5 8 -8 54 -12 147 -11 90 1 125
4 103 9 -19 4 -39 13 -45 20 -9 8 -5 9 16 1 16 -6 52 -9 80 -6z m3413 -42
c-11 -11 -17 4 -9 23 7 18 8 18 11 1 2 -10 1 -21 -2 -24z m-1848 9 c2 -7 -3
-12 -12 -12 -9 0 -16 7 -16 16 0 17 22 14 28 -4z m188 -37 c1 -8 -2 -15 -6
-15 -5 0 -8 9 -7 20 1 21 10 18 13 -5z m-1556 5 c0 -5 -6 -10 -13 -10 -18 0
-54 -40 -59 -65 -2 -15 -12 -21 -38 -23 -19 -2 -39 -7 -44 -12 -6 -6 -14 -6
-21 0 -9 7 -16 5 -25 -5 -12 -14 -15 -14 -31 1 -17 15 -18 15 -25 -10 -7 -27
5 -52 13 -28 4 10 8 10 20 1 12 -10 16 -10 24 2 5 8 9 9 9 3 0 -7 24 -12 63
-13 34 -1 64 -6 65 -11 2 -6 11 -11 20 -11 10 -1 4 -5 -13 -9 -16 -4 -126 -8
-242 -9 l-213 -1 1 23 c0 12 3 16 6 10 3 -9 31 -13 91 -13 67 0 83 3 74 12 -7
7 -12 22 -12 34 0 31 -18 40 -22 12 -4 -20 -7 -18 -23 18 -14 32 -26 43 -57
52 -22 7 -43 10 -48 7 -11 -7 -24 31 -15 45 8 14 515 14 515 0z m70 -10 c13
-9 13 -11 0 -20 -18 -12 -101 -9 -93 3 3 5 16 7 28 5 16 -4 22 -1 18 9 -6 15
25 18 47 3z m998 -20 c12 -12 22 -27 22 -35 0 -11 -5 -11 -30 1 -34 17 -44 30
-35 44 9 15 19 12 43 -10z m1353 10 c10 0 19 -7 19 -15 0 -18 -41 -20 -58 -3
-17 17 -15 31 4 24 9 -3 24 -6 35 -6z m439 -19 c0 -5 -14 -11 -31 -15 -53 -10
-66 -5 -24 9 51 16 55 17 55 6z m-1645 -11 c3 -5 1 -10 -4 -10 -6 0 -11 5 -11
10 0 6 2 10 4 10 3 0 8 -4 11 -10z m35 0 c0 -5 -2 -10 -4 -10 -3 0 -8 5 -11
10 -3 6 -1 10 4 10 6 0 11 -4 11 -10z m308 -31 c-3 -16 0 -31 6 -34 6 -2 2 -4
-9 -2 -11 1 -20 8 -19 15 1 6 2 24 3 38 0 15 5 23 12 18 6 -3 9 -19 7 -35z
m-1418 11 c0 -5 -7 -10 -16 -10 -8 0 -12 5 -9 10 3 6 10 10 16 10 5 0 9 -4 9
-10z m1760 -10 c0 -26 8 -25 30 3 21 26 37 18 21 -11 -19 -35 -100 -39 -86 -4
4 12 3 13 -10 2 -9 -8 -15 -9 -15 -2 0 12 29 31 48 32 6 0 12 -9 12 -20z
m-1818 3 c-9 -3 -10 -9 -3 -17 8 -10 3 -11 -21 -8 l-31 5 24 13 c13 7 29 13
34 13 6 0 4 -3 -3 -6z m2618 -9 c0 -2 -12 -4 -27 -4 -21 0 -24 3 -14 9 13 8
41 5 41 -5z m53 9 c-7 -2 -19 -2 -25 0 -7 3 -2 5 12 5 14 0 19 -2 13 -5z m202
-13 c-3 -5 -10 -10 -16 -10 -5 0 -9 5 -9 10 0 6 7 10 16 10 8 0 12 -4 9 -10z
m-945 -9 c0 -5 -6 -14 -14 -20 -16 -13 -32 2 -21 19 8 12 35 13 35 1z m38 -14
c2 -12 -1 -15 -12 -11 -19 7 -22 38 -3 32 6 -3 13 -12 15 -21z m55 17 c-7 -3
-9 -12 -6 -21 5 -13 3 -13 -16 -2 -28 18 -27 24 7 26 15 1 22 -1 15 -3z m147
-1 c0 -5 -4 -14 -9 -21 -7 -11 -11 -11 -24 2 -20 20 -27 20 -43 -1 -13 -17
-14 -17 -8 0 7 20 -6 23 -24 5 -9 -9 -12 -8 -12 5 0 14 10 17 60 17 33 0 60
-3 60 -7z m660 -3 c0 -5 -4 -10 -10 -10 -5 0 -10 5 -10 10 0 6 5 10 10 10 6 0
10 -4 10 -10z m-1500 -30 c8 -16 8 -20 -4 -20 -8 0 -17 -6 -19 -12 -4 -10 -7
-10 -15 0 -5 7 -16 10 -24 7 -9 -4 -18 0 -21 9 -4 10 -1 13 9 9 10 -4 12 0 8
11 -10 25 52 22 66 -4z m1463 5 c-3 -9 -8 -14 -10 -11 -3 3 -2 9 2 15 9 16 15
13 8 -4z m-2883 -5 c0 -5 -2 -10 -4 -10 -3 0 -8 5 -11 10 -3 6 -1 10 4 10 6 0
11 -4 11 -10z m1128 -18 c3 -9 -2 -13 -14 -10 -9 1 -19 9 -22 16 -3 9 2 13 14
10 9 -1 19 -9 22 -16z m1499 2 c-3 -3 -12 -4 -19 -1 -8 3 -5 6 6 6 11 1 17 -2
13 -5z m80 0 c-3 -3 -12 -4 -19 -1 -8 3 -5 6 6 6 11 1 17 -2 13 -5z m-685 -15
c2 -5 23 -10 47 -11 28 0 39 -3 30 -9 -8 -5 -9 -9 -4 -9 6 0 3 -5 -5 -10 -13
-8 -12 -10 3 -10 11 0 21 8 24 19 3 11 13 19 26 18 12 0 38 1 57 2 69 3 71 1
49 -31 -25 -35 -31 -35 -23 -2 8 33 -16 29 -31 -4 -11 -24 -50 -30 -58 -9 -4
8 -8 9 -14 1 -7 -10 -33 -11 -100 -5 -7 1 -10 7 -8 14 7 17 -11 41 -24 32 -9
-5 -9 -10 -1 -20 8 -9 6 -14 -6 -19 -24 -9 -36 -7 -28 5 3 6 1 15 -7 19 -10 7
-10 11 0 24 15 18 67 22 73 5z m442 -21 c12 -23 13 -23 256 -26 152 -2 262 1
289 8 50 13 63 7 29 -12 -17 -10 -85 -13 -283 -13 -233 0 -264 2 -288 18 -15
10 -27 27 -27 39 0 24 7 19 24 -14z m-584 13 c0 -5 -9 -7 -20 -4 -11 3 -20 7
-20 9 0 2 9 4 20 4 11 0 20 -4 20 -9z m1195 -1 c-3 -5 -12 -7 -20 -3 -21 7
-19 13 6 13 11 0 18 -4 14 -10z m-1160 -10 c3 -5 1 -10 -4 -10 -6 0 -11 5 -11
10 0 6 2 10 4 10 3 0 8 -4 11 -10z m-10 -39 c3 -6 -3 -9 -14 -8 -11 0 -17 5
-15 9 7 11 22 10 29 -1z m-1560 -11 c-3 -5 -11 -10 -16 -10 -6 0 -7 5 -4 10 3
6 11 10 16 10 6 0 7 -4 4 -10z m1405 0 c10 -6 11 -10 3 -10 -7 0 -12 -5 -10
-11 1 -6 -4 -14 -10 -16 -16 -6 -17 13 -2 23 8 4 7 9 -2 15 -8 5 -9 9 -4 9 6
0 17 -5 25 -10z m-1343 -21 c1 -13 -5 -19 -20 -19 -15 0 -23 6 -24 19 -1 13 5
19 21 19 14 0 22 -7 23 -19z m173 2 c0 -16 -7 -19 -47 -19 -27 1 -59 5 -72 10
-17 6 -27 5 -33 -4 -5 -9 -8 -7 -8 7 0 19 7 21 80 23 72 1 80 0 80 -17z m40 4
c0 -8 -4 -15 -8 -15 -5 0 -9 7 -9 15 0 8 4 15 9 15 4 0 8 -7 8 -15z m116 -6
c0 -18 -27 -22 -42 -6 -4 4 -18 4 -30 1 -13 -4 -24 -2 -24 3 0 16 9 20 53 20
35 1 43 -2 43 -18z m34 7 c0 -8 -4 -18 -10 -21 -5 -3 -10 3 -10 14 0 12 5 21
10 21 6 0 10 -6 10 -14z m402 -3 c-6 -3 -10 -9 -6 -14 3 -5 -2 -9 -10 -9 -9 0
-16 3 -16 6 0 10 34 33 40 27 3 -3 -1 -8 -8 -10z m61 3 c7 -19 0 -25 -24 -19
-15 4 -17 8 -8 19 15 18 25 18 32 0z m57 -7 c0 -13 -7 -19 -22 -18 -19 1 -19
2 -5 6 17 4 17 6 2 17 -15 10 -14 12 4 13 15 1 21 -4 21 -18z m265 -4 c-2 -13
3 -30 11 -36 18 -15 147 -22 189 -11 27 8 51 36 25 30 -7 -2 -15 3 -17 10 -3
7 4 12 16 12 12 0 21 -6 21 -15 0 -26 35 -34 123 -28 49 3 92 2 99 -4 14 -10
168 -1 235 14 38 9 42 8 47 -11 3 -11 0 -24 -7 -28 -9 -5 -9 -10 1 -20 11 -11
16 -9 30 9 20 25 67 40 76 24 4 -6 22 -11 39 -11 21 0 36 -7 45 -20 12 -19 10
-20 -74 -20 -50 0 -83 -4 -79 -9 3 -5 -9 -12 -27 -14 -18 -2 72 -4 200 -4 127
0 234 -2 237 -4 2 -3 -3 -18 -11 -34 -15 -29 -15 -50 1 -90 8 -20 8 -20 -13
-1 -21 18 -22 18 -28 0 -3 -11 -13 -36 -22 -57 -12 -31 -13 -40 -3 -46 9 -6 4
-10 -16 -14 -15 -3 -29 -4 -31 -3 -1 2 4 21 12 44 l15 41 -27 5 c-15 3 -53 4
-84 1 -32 -2 -58 1 -58 6 0 5 6 9 13 10 6 0 -1 7 -18 14 -41 19 -120 19 -139
0 -8 -9 -20 -14 -27 -13 -6 2 -14 -3 -16 -9 -3 -7 0 -13 6 -13 5 0 13 -16 17
-35 4 -22 12 -35 23 -36 9 -1 0 -5 -19 -10 -45 -11 -1093 -9 -1111 2 -12 7
-11 9 1 10 8 1 -1 5 -20 8 -25 5 -44 2 -66 -11 -37 -21 -90 -24 -101 -4 -11
19 -136 28 -129 9 6 -15 12 -14 -87 -18 -59 -2 -80 1 -84 11 -3 9 -22 14 -53
14 -27 0 -55 3 -64 6 -32 12 -3 24 61 24 57 0 64 2 53 15 -10 12 -8 16 12 24
33 12 76 3 92 -21 12 -17 24 -19 99 -16 48 2 89 7 93 10 3 4 13 4 22 1 10 -3
-1 12 -23 35 -22 22 -42 38 -44 36 -3 -2 8 -18 24 -34 33 -34 21 -40 -19 -9
-14 11 -26 30 -26 42 0 20 -1 20 -17 4 -13 -13 -14 -19 -5 -29 16 -16 15 -28
-2 -28 -8 0 -16 7 -20 15 -3 8 -12 15 -19 15 -8 0 -20 7 -27 15 -10 12 -10 15
4 15 24 0 19 15 -9 30 -19 10 -25 21 -23 39 l3 26 250 3 c275 2 359 12 205 23
-52 4 -133 7 -180 8 -47 1 -90 5 -97 9 -6 4 258 7 588 7 391 0 600 3 601 10 2
7 -121 11 -352 12 -289 1 -360 4 -383 16 l-28 15 38 9 c28 6 39 14 41 31 5 32
40 30 37 -3z m-220 5 c3 -5 -3 -10 -14 -10 -12 0 -21 5 -21 10 0 6 6 10 14 10
8 0 18 -4 21 -10z m35 0 c0 -5 -4 -10 -10 -10 -5 0 -10 5 -10 10 0 6 5 10 10
10 6 0 10 -4 10 -10z m40 6 c0 -3 -4 -8 -10 -11 -5 -3 -10 -1 -10 4 0 6 5 11
10 11 6 0 10 -2 10 -4z m40 -6 c0 -5 -4 -10 -9 -10 -6 0 -13 5 -16 10 -3 6 1
10 9 10 9 0 16 -4 16 -10z m250 0 c0 -5 -4 -10 -10 -10 -5 0 -10 5 -10 10 0 6
5 10 10 10 6 0 10 -4 10 -10z m170 -11 c0 -17 -3 -19 -14 -10 -11 9 -15 9 -19
-1 -3 -7 -6 -3 -6 10 -1 16 5 22 19 22 14 0 20 -7 20 -21z m22 -11 c-9 -9 -12
-7 -12 12 0 19 3 21 12 12 9 -9 9 -15 0 -24z m38 10 c0 -16 -3 -19 -11 -11 -6
6 -8 16 -5 22 11 17 16 13 16 -11z m116 10 c4 -5 1 -15 -5 -21 -8 -8 -11 -6
-11 6 0 9 -5 17 -11 17 -6 0 -9 -6 -6 -14 4 -9 -2 -13 -18 -13 -16 0 -22 4
-18 13 3 9 -2 14 -12 14 -11 0 -15 -5 -11 -15 3 -8 1 -15 -4 -15 -6 0 -10 9
-10 19 0 17 7 20 50 19 28 0 53 -4 56 -10z m37 -8 c-3 -11 -7 -20 -8 -20 -1 0
-5 9 -8 20 -3 12 0 20 8 20 8 0 11 -8 8 -20z m61 11 c3 -5 -1 -14 -8 -20 -16
-13 -32 2 -21 19 8 12 22 13 29 1z m86 -11 c0 -11 -5 -20 -11 -20 -6 0 -9 7
-5 15 3 9 0 15 -10 15 -10 0 -14 -6 -10 -15 3 -8 1 -15 -4 -15 -6 0 -10 6 -11
13 0 9 -2 9 -6 -1 -2 -6 -9 -10 -13 -7 -19 12 2 31 35 33 29 2 35 -1 35 -18z
m430 0 c0 -11 -2 -20 -4 -20 -2 0 -6 9 -9 20 -3 11 -1 20 4 20 5 0 9 -9 9 -20z
m57 -2 c2 -18 0 -20 -7 -8 -9 13 -11 13 -20 0 -8 -12 -10 -11 -10 8 0 30 35
30 37 0z m-1773 -3 c22 -2 46 -4 52 -4 16 -1 14 -51 -2 -51 -7 0 -17 -8 -23
-17 -7 -13 -27 -18 -83 -21 -40 -2 -79 -9 -85 -14 -7 -6 -13 -31 -14 -57 -1
-92 47 -83 -488 -82 -375 2 -476 -1 -489 -11 -12 -10 -14 -10 -8 -1 13 23 -24
14 -60 -14 -59 -44 -161 -42 -216 5 -34 29 -13 118 34 143 l21 12 -21 -28
c-26 -33 -29 -53 -5 -34 13 11 17 11 20 2 3 -7 9 -13 14 -13 6 0 8 4 4 10 -3
5 5 16 19 25 19 13 29 14 45 5 12 -6 21 -17 21 -25 0 -8 5 -15 10 -15 6 0 10
5 10 10 0 6 7 10 15 10 17 0 19 11 5 28 -7 9 -7 9 2 2 21 -18 38 -11 38 15 l0
25 -112 1 c-62 1 -117 0 -123 -1 -5 -1 -7 1 -3 5 3 4 59 6 125 5 65 -1 125 -1
133 -1 8 0 51 3 96 7 58 5 87 3 104 -6 16 -9 25 -9 28 -2 2 6 17 8 37 5 47 -8
71 2 55 22 -32 39 67 76 104 39 22 -21 21 -55 -1 -47 -11 4 -14 3 -9 -5 5 -8
111 -11 376 -10 307 0 370 3 370 14 0 11 -19 14 -83 14 -88 0 -99 3 -90 26 3
9 20 14 44 14 26 0 42 5 45 15 4 10 13 13 26 9 11 -3 39 -7 62 -9z m1819 9
c11 -11 -3 -24 -18 -18 -8 4 -12 10 -9 15 6 11 18 12 27 3z m37 -4 c0 -5 -4
-10 -10 -10 -5 0 -10 5 -10 10 0 6 5 10 10 10 6 0 10 -4 10 -10z m40 6 c0 -3
-4 -8 -10 -11 -5 -3 -10 -1 -10 4 0 6 5 11 10 11 6 0 10 -2 10 -4z m40 -11 c0
-8 -4 -15 -9 -15 -5 0 -11 7 -15 15 -3 9 0 15 9 15 8 0 15 -7 15 -15z m310
-77 c0 -5 -10 -8 -22 -6 -18 2 -24 11 -26 36 -6 61 7 71 29 23 10 -24 19 -48
19 -53z m-2756 60 c39 1 90 -1 114 -4 37 -5 40 -7 28 -20 -9 -8 -36 -14 -68
-15 -29 0 -77 -4 -106 -8 -43 -6 -55 -4 -72 11 -24 23 -33 23 -55 -2 -19 -21
-37 -18 -28 5 3 8 0 15 -7 15 -10 0 -10 3 0 14 14 18 89 25 109 11 8 -5 46 -9
85 -7z m2059 2 c24 -10 20 -11 -45 -14 -34 -2 -78 12 -78 25 0 9 94 1 123 -11z
m-1089 -6 c13 -5 13 -8 1 -20 -9 -10 -37 -14 -92 -13 -53 0 -72 3 -58 9 l20 9
-20 1 c-32 4 33 17 87 19 25 0 53 -2 62 -5z m1621 -25 c4 -16 7 -50 7 -75 1
-42 3 -44 30 -44 28 0 29 -1 26 -47 l-3 -48 -41 3 c-37 3 -42 1 -48 -23 -8
-32 -1 -45 24 -45 10 0 22 -5 25 -10 5 -8 12 -7 23 2 14 12 14 10 3 -10 -16
-30 -33 -36 -77 -28 -40 8 -54 31 -29 49 13 10 15 21 10 48 -6 33 -8 35 -53
37 -53 2 -82 -18 -82 -55 0 -20 -4 -24 -24 -21 -13 1 -31 -3 -39 -11 -9 -7
-23 -11 -31 -8 -18 7 -9 57 10 57 8 0 22 4 32 9 9 5 25 12 34 15 10 3 15 11
12 19 -4 12 19 29 56 40 8 2 25 -5 38 -16 26 -24 30 -10 5 19 -26 29 -47 68
-33 59 7 -4 7 1 -2 14 -10 16 -19 20 -40 16 -14 -4 -29 -1 -33 4 -3 6 0 9 7 6
20 -7 39 10 32 28 -7 19 -30 23 -36 6 -2 -7 -23 -12 -46 -13 -33 -1 -42 2 -40
14 4 17 58 25 58 8 0 -6 10 -4 24 5 13 9 48 18 77 20 125 8 117 10 124 -24z
m-326 12 c14 -4 26 -13 29 -21 3 -12 2 -12 -6 -1 -7 10 -14 10 -30 2 -23 -12
-71 -15 -96 -5 -13 5 -14 9 -5 20 12 15 66 17 108 5z m391 -32 c0 -32 -3 -34
-31 -19 -23 13 -25 30 -4 30 8 0 15 7 15 16 0 8 5 12 10 9 6 -3 10 -19 10 -36z
m-2373 15 c-3 -3 -12 -4 -19 -1 -8 3 -5 6 6 6 11 1 17 -2 13 -5z m1853 -24 c0
-5 -5 -10 -11 -10 -5 0 -7 5 -4 10 3 6 8 10 11 10 2 0 4 -4 4 -10z m128 -17
c-21 -2 -57 -2 -80 0 -24 2 -7 4 37 4 44 0 63 -2 43 -4z m100 0 c-10 -2 -26
-2 -35 0 -10 3 -2 5 17 5 19 0 27 -2 18 -5z m392 -43 c0 -37 -13 -45 -35 -20
-17 19 -17 21 0 40 22 25 35 17 35 -20z m-2 -112 c-3 -45 -6 -53 -23 -53 -17
0 -20 8 -23 53 -3 50 -2 52 23 52 25 0 26 -2 23 -52z m-2808 -28 c0 -17 -2
-19 -14 -8 -14 13 -12 28 5 28 5 0 9 -9 9 -20z m50 -6 c0 -8 -5 -14 -11 -14
-5 0 -7 5 -4 10 3 6 1 10 -5 10 -6 0 -8 5 -5 10 8 13 25 3 25 -16z m44 10 c7
-19 -1 -34 -17 -33 -9 0 -9 2 1 6 17 7 15 23 -4 23 -8 0 -12 5 -9 10 9 15 22
12 29 -6z m2466 0 c0 -2 -9 -4 -20 -4 -11 0 -20 4 -20 9 0 5 9 7 20 4 11 -3
20 -7 20 -9z m-3075 -13 c-3 -6 -11 -11 -16 -11 -5 0 -4 6 3 14 14 16 24 13
13 -3z m91 4 c16 -8 22 -15 14 -15 -8 1 -24 7 -34 15 -25 19 -16 19 20 0z m50
0 c9 -8 11 -15 6 -15 -5 0 -15 7 -22 15 -7 8 -9 15 -6 15 4 0 14 -7 22 -15z
m68 3 c5 -10 7 -10 12 0 8 17 25 15 18 -3 -4 -8 -12 -15 -19 -15 -7 0 -18 7
-25 15 -8 9 -8 15 -2 15 6 0 13 -6 16 -12z m2834 -17 c10 -6 9 -10 -7 -14 -14
-3 -19 -10 -15 -21 7 -18 24 -22 24 -6 0 6 7 10 16 10 22 0 13 -19 -18 -38
-26 -15 -28 -15 -47 9 -18 22 -19 25 -4 37 9 6 13 12 9 12 -4 0 -4 5 -1 10 8
12 25 13 43 1z m-522 -12 c4 -7 21 -9 45 -5 22 4 39 2 39 -3 0 -5 10 -11 22
-13 33 -5 35 -34 2 -41 -31 -5 -64 2 -64 14 0 5 7 9 15 9 8 0 15 5 15 10 0 6
-13 10 -29 10 -50 0 -94 12 -79 21 18 12 26 11 34 -2z m354 -39 c0 -5 -7 -10
-16 -10 -8 0 -12 5 -9 10 3 6 10 10 16 10 5 0 9 -4 9 -10z m48 -12 c-3 -7 -11
-13 -18 -13 -7 0 -15 6 -17 13 -3 7 4 12 17 12 13 0 20 -5 18 -12z m62 2 c0
-5 -4 -10 -10 -10 -5 0 -10 5 -10 10 0 6 5 10 10 10 6 0 10 -4 10 -10z m-3080
-9 l45 -8 -55 -1 c-30 0 -68 4 -85 8 -29 7 -28 8 10 8 22 0 60 -3 85 -7z m680
-5 c14 -2 -10 -4 -52 -5 -43 0 -78 2 -78 7 0 6 70 6 130 -2z"/>
<path d="M670 1835 c0 -8 2 -15 4 -15 2 0 6 7 10 15 3 8 1 15 -4 15 -6 0 -10
-7 -10 -15z"/>
<path d="M870 1836 c0 -9 5 -16 10 -16 6 0 10 4 10 9 0 6 -4 13 -10 16 -5 3
-10 -1 -10 -9z"/>
<path d="M2700 1849 c0 -5 5 -7 10 -4 6 3 10 8 10 11 0 2 -4 4 -10 4 -5 0 -10
-5 -10 -11z"/>
<path d="M1570 1840 c0 -5 5 -10 11 -10 5 0 7 5 4 10 -3 6 -8 10 -11 10 -2 0
-4 -4 -4 -10z"/>
<path d="M2801 1736 c-8 -14 -20 -22 -30 -19 -11 2 -23 -10 -39 -36 -22 -40
-23 -40 -90 -44 l-67 -3 80 -2 c102 -3 230 -26 272 -49 23 -12 33 -25 33 -41
0 -20 4 -22 23 -17 36 11 63 43 50 56 -9 9 -16 9 -28 -1 -8 -7 -19 -10 -23 -6
-12 13 30 36 67 36 19 0 32 3 29 6 -4 3 -46 6 -95 6 l-88 1 65 10 c68 11 80
18 73 47 -5 18 -94 51 -144 52 -17 1 -33 7 -36 15 -8 21 -38 15 -52 -11z m35
-39 c3 -8 0 -27 -6 -43 -10 -26 -12 -27 -22 -11 -11 21 -3 67 13 67 5 0 12 -6
15 -13z m184 -26 c0 -14 -18 -23 -30 -16 -6 4 -8 11 -5 16 8 12 35 12 35 0z"/>
<path d="M2985 1730 c27 -12 43 -12 25 0 -8 5 -22 9 -30 9 -10 0 -8 -3 5 -9z"/>
<path d="M2420 1639 c-32 -12 -75 -19 -102 -18 -57 3 -65 -2 -38 -26 19 -17
19 -20 4 -36 -15 -16 -14 -19 15 -34 17 -8 31 -11 31 -6 0 5 -10 11 -22 14
-18 5 -19 8 -8 22 11 13 10 18 -4 34 -16 17 -13 18 59 24 42 4 88 13 104 21
24 13 31 13 57 0 38 -20 38 -19 19 -47 -11 -17 -28 -27 -53 -30 -20 -3 -61
-13 -89 -23 l-53 -18 0 -108 c0 -96 2 -108 18 -108 10 0 13 -3 6 -8 -6 -4 -14
-31 -17 -59 -8 -70 5 -83 84 -83 63 0 71 8 39 40 -25 25 -27 39 -2 18 9 -8 37
-18 61 -22 54 -8 68 -16 50 -27 -17 -10 -18 -10 185 -9 102 0 164 4 173 11 10
9 13 54 13 199 0 165 -2 189 -17 202 -31 28 -125 48 -248 55 -87 4 -130 11
-157 24 -44 22 -39 23 -108 -2z m215 -65 c8 -3 15 -1 15 5 0 20 74 13 92 -9
22 -25 8 -34 -36 -22 -19 6 -62 8 -96 6 l-62 -4 24 20 c12 11 29 17 36 15 6
-3 19 -8 27 -11z m210 -38 c95 -16 95 -16 83 -36 -19 -29 -44 -30 -68 -3 -18
21 -26 23 -65 17 -37 -5 -45 -3 -45 9 0 20 31 38 45 28 5 -5 28 -11 50 -15z
m-308 0 c-3 -8 -1 -17 6 -20 7 -2 4 -5 -5 -5 -10 -1 -18 -7 -18 -15 0 -10 7
-12 23 -8 19 5 20 3 9 -10 -11 -14 -10 -17 5 -21 11 -3 8 -5 -10 -6 -16 0 -26
3 -22 8 3 5 0 13 -6 17 -16 9 -41 -26 -35 -49 2 -9 0 -15 -5 -12 -4 3 -13 -9
-18 -27 -9 -31 -10 -32 -16 -10 -7 22 -8 22 -34 6 l-26 -17 19 22 c11 11 16
24 13 27 -4 4 12 20 34 36 22 16 47 45 55 64 13 32 43 51 31 20z m-97 -10 c0
-2 -7 -7 -16 -10 -8 -3 -12 -2 -9 4 6 10 25 14 25 6z m310 -50 c0 -5 -7 -3
-15 4 -8 7 -15 22 -15 34 1 20 2 20 15 -4 8 -14 14 -29 15 -34z m-42 -51 c-3
-3 -9 2 -12 12 -6 14 -5 15 5 6 7 -7 10 -15 7 -18z m191 -24 c-23 -31 -26 -65
-8 -107 11 -28 10 -33 -9 -52 -24 -24 -20 -48 10 -58 11 -3 17 -8 14 -11 -10
-10 -66 32 -66 49 0 10 -4 18 -10 18 -5 0 -10 -7 -10 -15 0 -13 -3 -13 -20 -3
-10 7 -23 9 -27 5 -4 -5 -1 -12 7 -17 13 -8 13 -10 -1 -10 -9 0 -24 9 -34 20
-22 24 -13 54 15 47 10 -3 24 1 31 9 9 11 8 14 -5 14 -9 0 -16 6 -16 13 0 8
-9 22 -20 32 -11 10 -20 24 -20 32 0 11 -4 11 -21 3 -11 -6 -28 -9 -37 -7 -13
3 -11 7 11 17 15 7 27 18 27 23 0 6 17 -9 39 -32 40 -43 63 -48 108 -22 16 9
16 11 -7 20 l-25 10 28 0 c24 1 27 4 21 25 -4 17 0 27 13 34 27 16 35 -7 12
-37z m-124 29 c3 -5 -1 -10 -9 -10 -9 0 -16 5 -16 10 0 6 4 10 9 10 6 0 13 -4
16 -10z m-197 -39 c-19 -16 -40 -45 -48 -65 -7 -20 -20 -36 -27 -36 -18 0 -17
25 2 40 8 7 12 16 9 21 -3 5 0 9 6 9 6 0 10 6 9 13 -5 40 1 47 41 47 l41 0
-33 -29z m111 -84 c-11 -25 -49 -54 -49 -37 0 5 4 10 8 10 5 0 14 11 20 25 6
14 16 25 22 25 6 0 6 -8 -1 -23z m-233 -37 c27 0 31 12 9 30 -9 7 -13 15 -11
17 3 3 17 -9 33 -27 31 -34 54 -34 70 2 8 19 10 20 16 5 3 -9 2 -17 -3 -17 -5
0 -6 -17 -3 -37 5 -36 5 -37 -10 -18 -16 19 -16 19 -17 1 0 -15 -3 -16 -14 -7
-11 10 -16 9 -24 -5 -8 -14 -10 -12 -16 12 -4 15 -10 24 -14 18 -4 -5 -17 -14
-29 -21 -18 -11 -23 -9 -37 12 -21 31 -20 49 2 71 16 17 17 17 20 -9 3 -21 9
-27 28 -27z m245 -43 c-4 -4 -18 -3 -32 2 -23 9 -22 9 8 8 18 -1 28 -6 24 -10z
m112 -47 c-18 -20 -67 -27 -78 -11 -6 11 30 25 43 17 4 -2 14 -1 22 5 25 15
31 10 13 -11z"/>
<path d="M2895 1510 c3 -5 8 -10 11 -10 2 0 4 5 4 10 0 6 -5 10 -11 10 -5 0
-7 -4 -4 -10z"/>
<path d="M2830 1316 c0 -7 6 -19 14 -25 11 -9 15 -6 18 14 4 19 1 25 -13 25
-11 0 -19 -6 -19 -14z"/>
<path d="M1688 1628 c-25 -8 -26 -11 -13 -25 28 -28 12 -47 -47 -56 -33 -5
-38 -3 -38 14 0 10 -4 19 -10 19 -15 0 -12 -50 3 -51 24 -2 53 3 82 16 17 7
38 16 48 19 16 5 15 8 -10 31 -21 19 -24 24 -11 25 9 0 20 5 23 10 3 6 5 10 3
9 -2 0 -15 -5 -30 -11z"/>
<path d="M2477 1616 c-4 -10 2 -13 19 -12 27 1 31 11 8 20 -21 8 -21 8 -27 -8z"/>
<path d="M3210 1615 c0 -9 6 -12 15 -9 8 4 15 1 15 -6 0 -6 5 -8 12 -4 7 5 5
11 -7 21 -24 17 -35 17 -35 -2z"/>
<path d="M990 1605 c0 -9 6 -12 17 -8 13 5 15 2 10 -12 -6 -15 -5 -16 8 -5 12
10 13 16 4 26 -15 18 -39 18 -39 -1z"/>
<path d="M1059 1602 c15 -28 15 -29 -14 -36 -35 -9 -31 -18 16 -41 36 -17 40
-22 35 -46 -4 -21 0 -31 18 -43 l24 -15 -11 34 c-9 32 0 66 10 38 3 -7 9 -13
15 -13 5 0 21 -9 35 -20 14 -11 33 -20 42 -20 21 0 85 -46 74 -52 -4 -3 -1 -3
7 -1 48 13 73 15 67 6 -4 -6 0 -14 9 -17 13 -5 14 -9 5 -20 -9 -10 -29 -13
-74 -10 -48 4 -59 2 -50 -7 8 -8 40 -12 84 -12 57 1 74 5 84 20 7 10 13 22 13
26 0 5 12 23 26 42 20 26 26 45 26 83 0 47 -1 50 -37 65 -65 28 -133 39 -265
42 -69 2 -132 6 -138 10 -9 6 -9 2 -1 -13z m339 -33 c15 -6 22 -17 22 -36 l0
-27 -16 22 c-12 17 -19 20 -29 12 -9 -8 -15 -8 -20 0 -10 16 -81 12 -95 -5
-10 -12 -10 -15 3 -15 9 0 22 -7 30 -15 13 -13 16 -12 22 3 5 15 9 14 26 -8
14 -17 22 -21 26 -12 8 20 23 14 23 -10 1 -22 1 -23 15 -4 15 19 15 19 15 -2
0 -24 -27 -42 -39 -26 -12 18 -65 36 -69 24 -3 -7 -8 -8 -17 0 -6 5 -27 12
-44 14 -18 2 -44 14 -59 27 -15 13 -31 27 -35 30 -5 4 2 4 15 2 15 -3 42 5 69
21 36 21 52 24 89 19 25 -3 55 -10 68 -14z"/>
<path d="M1727 1613 c-13 -12 -7 -25 6 -14 17 13 27 5 20 -17 -4 -14 -3 -15 5
-2 16 22 -13 52 -31 33z"/>
<path d="M2445 1603 c7 -25 -4 -34 -56 -43 -32 -6 -39 -4 -44 11 -8 26 -22 24
-20 -2 2 -28 22 -39 54 -28 85 27 131 49 101 49 -7 0 -19 8 -27 18 -13 16 -14
15 -8 -5z"/>
<path d="M3175 1603 c7 -24 -9 -36 -62 -46 -28 -6 -33 -4 -33 13 0 11 -6 20
-14 20 -10 0 -12 -7 -8 -22 10 -40 18 -41 114 -5 41 15 58 27 38 27 -7 0 -19
8 -27 18 -13 16 -14 15 -8 -5z"/>
<path d="M2410 1590 c0 -5 5 -10 10 -10 6 0 10 5 10 10 0 6 -4 10 -10 10 -5 0
-10 -4 -10 -10z"/>
<path d="M3100 1590 c-9 -6 -10 -10 -3 -10 6 0 15 5 18 10 8 12 4 12 -15 0z"/>
<path d="M3140 1590 c0 -5 5 -10 10 -10 6 0 10 5 10 10 0 6 -4 10 -10 10 -5 0
-10 -4 -10 -10z"/>
<path d="M1610 1580 c-9 -6 -10 -10 -3 -10 6 0 15 5 18 10 8 12 4 12 -15 0z"/>
<path d="M1655 1580 c-3 -5 -1 -10 4 -10 6 0 11 5 11 10 0 6 -2 10 -4 10 -3 0
-8 -4 -11 -10z"/>
<path d="M1531 1547 c-13 -21 -12 -21 5 -5 10 10 16 20 13 22 -3 3 -11 -5 -18
-17z"/>
<path d="M910 1524 c-36 -13 -59 -24 -51 -24 9 0 11 -8 7 -24 -5 -19 -1 -26
14 -31 11 -4 32 -19 46 -33 21 -23 26 -25 34 -12 6 8 8 23 6 34 -3 10 1 28 8
40 8 11 16 33 20 49 8 33 3 33 -84 1z"/>
<path d="M1006 1508 c-9 -36 -8 -38 24 -49 17 -6 30 -15 30 -20 0 -5 4 -9 9
-9 6 0 6 12 1 30 -5 17 -6 30 -3 30 3 0 -2 9 -12 20 -24 26 -41 25 -49 -2z"/>
<path d="M3002 1519 c-13 -5 -20 -13 -17 -19 3 -5 -1 -10 -9 -10 -9 0 -16 -4
-16 -10 0 -12 -4 -12 50 4 26 8 46 20 48 30 4 18 -19 20 -56 5z"/>
<path d="M3032 1466 c-36 -21 -38 -27 -4 -15 18 6 32 15 32 20 0 5 -1 9 -2 8
-2 -1 -13 -7 -26 -13z"/>
<path d="M2960 1405 c0 -30 5 -55 10 -55 6 0 10 4 10 9 0 6 18 20 40 32 22 13
40 26 40 31 0 12 -52 -11 -66 -30 -7 -9 -16 -13 -20 -9 -5 4 -4 11 1 15 6 4 9
14 9 22 -1 8 -2 21 -3 28 0 6 -5 12 -11 12 -5 0 -10 -25 -10 -55z"/>
<path d="M1025 1430 c3 -5 8 -10 11 -10 2 0 4 5 4 10 0 6 -5 10 -11 10 -5 0
-7 -4 -4 -10z"/>
<path d="M855 1421 c-3 -5 -1 -12 5 -16 5 -3 10 1 10 9 0 18 -6 21 -15 7z"/>
<path d="M609 1385 c-12 -19 -25 -35 -30 -35 -5 0 -9 -13 -9 -30 0 -29 -13
-40 -25 -20 -10 16 -82 12 -88 -4 -4 -10 -25 -16 -64 -19 -39 -2 -26 -4 42 -5
55 -2 118 -7 139 -12 33 -7 42 -6 52 8 8 11 9 20 3 27 -7 7 -14 4 -20 -7 -10
-18 -39 -25 -39 -10 1 4 16 37 34 75 35 73 37 88 5 32z"/>
<path d="M1194 1405 c-18 -14 -18 -14 4 -8 12 3 22 9 22 14 0 12 -3 11 -26 -6z"/>
<path d="M1485 1397 c-4 -10 -5 -21 -1 -24 10 -10 18 4 13 24 -4 17 -4 17 -12
0z"/>
<path d="M137 1327 c-3 -29 -1 -57 4 -63 5 -7 48 -11 105 -12 95 -1 96 -1 78
19 -12 13 -28 19 -48 17 -27 -3 -31 0 -34 25 -3 21 -9 27 -27 27 -13 0 -27 4
-30 10 -3 5 -14 14 -24 20 -17 8 -19 4 -24 -43z"/>
<path d="M3080 1345 c0 -8 4 -15 10 -15 5 0 7 7 4 15 -4 8 -8 15 -10 15 -2 0
-4 -7 -4 -15z"/>
<path d="M270 1331 c-14 -27 -13 -29 13 -29 12 1 50 -2 84 -5 35 -3 65 -2 68
4 4 5 -1 9 -9 9 -9 0 -16 9 -16 20 0 11 -4 20 -10 20 -5 0 -10 -9 -10 -20 0
-29 -37 -27 -43 3 l-4 22 -2 -22 c-1 -28 -17 -30 -26 -3 -8 25 -31 26 -45 1z"/>
<path d="M810 1290 c0 -5 5 -10 10 -10 6 0 10 5 10 10 0 6 -4 10 -10 10 -5 0
-10 -4 -10 -10z"/>
<path d="M1280 1283 c1 -23 16 -31 33 -18 16 11 16 13 1 19 -21 8 -34 8 -34
-1z"/>
<path d="M1336 1234 c-9 -22 -8 -24 9 -18 8 4 15 12 15 20 0 19 -16 18 -24 -2z"/>
<path d="M1040 910 c0 -11 -17 -31 -42 -48 -55 -38 -98 -78 -98 -91 0 -6 18
-20 40 -31 23 -12 43 -27 46 -35 5 -11 11 -12 25 -4 15 8 21 6 25 -6 4 -10 10
-12 18 -7 10 8 43 12 94 12 9 0 34 -1 55 -1 20 0 37 -4 37 -10 0 -5 -7 -9 -15
-9 -9 0 -15 -10 -16 -22 -1 -17 -2 -19 -6 -5 -5 18 -23 24 -23 7 0 -5 -9 -10
-20 -10 -14 0 -20 7 -21 23 -1 17 -3 16 -8 -8 -7 -29 -7 -29 -15 -7 -4 12 -14
22 -22 22 -17 0 -19 -17 -2 -22 9 -3 9 -6 1 -11 -6 -4 -18 -1 -25 6 -11 12
-16 12 -27 0 -10 -11 -16 -12 -21 -3 -8 13 -31 10 -42 -5 -4 -5 -12 4 -18 22
-7 17 -27 44 -46 58 l-35 27 7 -29 c16 -75 25 -98 46 -129 28 -40 60 -59 34
-20 -9 14 -16 30 -16 35 0 13 57 6 75 -9 10 -9 15 -6 20 10 6 18 13 21 58 18
48 -3 52 -5 52 -28 0 -15 6 -26 18 -28 10 -2 17 3 17 11 0 21 33 47 61 47 23
0 25 3 21 35 l-4 35 43 1 c74 3 76 3 95 20 11 9 29 20 42 24 39 12 23 45 -50
103 -38 30 -68 61 -68 69 0 8 -15 -1 -34 -22 -19 -20 -33 -42 -30 -50 3 -7 1
-16 -5 -20 -6 -3 -11 1 -11 10 0 11 -5 15 -15 11 -10 -4 -15 1 -15 15 0 11 5
17 10 14 19 -12 24 27 5 41 -28 21 -31 18 -27 -21 5 -41 -6 -44 -45 -11 -46
38 -99 46 -61 8 7 -7 8 -12 3 -12 -16 1 -45 26 -45 39 0 6 -4 11 -10 11 -5 0
-10 -9 -10 -20z m128 -60 c7 -21 -20 -6 -37 21 l-16 24 24 -16 c14 -9 27 -22
29 -29z m-63 10 c7 -12 -2 -12 -30 0 -19 8 -19 9 2 9 12 1 25 -3 28 -9z m-5
-30 c8 -5 11 -12 7 -16 -4 -4 -15 0 -24 9 -18 18 -8 23 17 7z m100 0 c0 -5 -2
-10 -4 -10 -3 0 -8 5 -11 10 -3 6 -1 10 4 10 6 0 11 -4 11 -10z m114 -28 c-6
-4 -19 -22 -28 -39 -13 -26 -23 -33 -46 -33 -37 0 -69 26 -63 51 7 24 10 24
59 0 39 -20 56 -13 34 14 -11 13 -7 15 21 15 19 0 29 -4 23 -8z m-234 -12 c26
-16 3 -22 -27 -6 -23 13 -24 15 -8 15 11 1 27 -3 35 -9z m-26 -40 c-10 -4 -21
-6 -24 -3 -8 7 24 22 34 16 5 -4 1 -10 -10 -13z m73 14 c-3 -3 -12 -4 -19 -1
-8 3 -5 6 6 6 11 1 17 -2 13 -5z m200 0 c-3 -3 -12 -4 -19 -1 -8 3 -5 6 6 6
11 1 17 -2 13 -5z m-92 -103 c3 -5 1 -12 -5 -16 -5 -3 -10 1 -10 9 0 18 6 21
15 7z"/>
<path d="M1465 724 c-11 -9 -28 -21 -38 -29 -10 -7 -19 -22 -20 -34 -2 -25
-27 -29 -27 -3 0 10 -3 13 -8 7 -4 -6 -16 -10 -27 -10 -11 0 -26 -4 -34 -10
-12 -8 -13 -5 -9 18 6 32 -7 37 -15 5 -8 -27 -1 -38 24 -38 11 0 19 -7 19 -16
0 -11 5 -14 18 -9 9 4 24 7 32 8 8 0 20 4 27 9 19 15 26 -11 9 -37 -23 -35
-20 -42 9 -15 25 24 49 80 59 138 3 17 4 32 3 32 -1 0 -11 -8 -22 -16z"/>
<path d="M1204 589 c-4 -7 -3 -9 4 -5 6 3 13 2 17 -4 9 -15 88 -13 83 3 -6 16
-94 22 -104 6z"/>
<path d="M1108 583 c6 -2 18 -2 25 0 6 3 1 5 -13 5 -14 0 -19 -2 -12 -5z"/>
<path d="M3200 1756 c0 -2 8 -10 18 -17 15 -13 16 -12 3 4 -13 16 -21 21 -21
13z"/>
<path d="M920 1580 c0 -5 5 -10 10 -10 6 0 10 5 10 10 0 6 -4 10 -10 10 -5 0
-10 -4 -10 -10z"/>
<path d="M3204 1009 c-4 -8 0 -9 15 -4 13 4 21 2 21 -5 0 -6 5 -8 11 -4 8 4 7
9 -2 15 -19 12 -37 11 -45 -2z"/>
<path d="M3280 995 c-11 -13 -8 -15 24 -11 20 3 41 8 46 11 5 3 13 -2 18 -11
9 -16 46 -22 82 -13 8 2 14 -2 13 -8 -3 -14 59 -44 86 -42 9 0 1 5 -17 10 -24
7 -37 19 -47 43 l-14 33 -89 2 c-70 2 -92 -1 -102 -14z"/>
<path d="M3365 920 c3 -5 11 -10 16 -10 6 0 7 5 4 10 -3 6 -11 10 -16 10 -6 0
-7 -4 -4 -10z"/>
<path d="M3579 918 c-1 -7 0 -20 1 -28 1 -12 -1 -13 -11 -2 -7 6 -19 12 -27
12 -12 0 -12 -3 -1 -16 7 -8 20 -13 30 -11 9 3 36 -11 59 -29 24 -19 44 -34
46 -34 2 0 4 26 4 58 l0 59 -50 2 c-34 1 -50 -3 -51 -11z m36 -18 c3 -5 1 -10
-4 -10 -6 0 -11 5 -11 10 0 6 2 10 4 10 3 0 8 -4 11 -10z"/>
<path d="M3348 892 c-14 -6 -13 -9 8 -25 21 -15 24 -16 24 -2 0 8 0 18 1 22 1
11 -13 13 -33 5z"/>
<path d="M3170 845 c-10 -12 -10 -15 4 -15 9 0 16 7 16 15 0 8 -2 15 -4 15 -2
0 -9 -7 -16 -15z"/>
<path d="M3398 853 c7 -3 16 -2 19 1 4 3 -2 6 -13 5 -11 0 -14 -3 -6 -6z"/>
<path d="M3250 840 l-25 -8 28 -1 c15 -1 27 4 27 9 0 6 -1 10 -2 9 -2 -1 -14
-5 -28 -9z"/>
<path d="M3520 834 l-25 -15 25 5 c14 3 40 6 58 6 20 0 31 4 27 10 -9 15 -56
11 -85 -6z"/>
<path d="M3290 806 c0 -9 7 -16 16 -16 17 0 14 22 -4 28 -7 2 -12 -3 -12 -12z"/>
<path d="M3153 773 c9 -2 23 -2 30 0 6 3 -1 5 -18 5 -16 0 -22 -2 -12 -5z"/>
<path d="M3292 1460 c0 -14 2 -19 5 -12 2 6 2 18 0 25 -3 6 -5 1 -5 -13z"/>
<path d="M3160 1442 c0 -5 14 -6 31 -4 22 3 30 1 25 -7 -4 -6 -13 -11 -21 -11
-8 0 -16 -4 -19 -9 -3 -5 11 -8 32 -7 31 0 37 4 38 23 2 21 -3 23 -42 23 -24
0 -44 -4 -44 -8z"/>
<path d="M3330 1442 c0 -5 15 -7 33 -5 l32 4 -27 -16 c-36 -20 -35 -23 6 -22
28 1 35 6 39 24 4 21 1 23 -39 23 -24 0 -44 -4 -44 -8z"/>
<path d="M3500 1442 c0 -5 15 -7 33 -5 l32 4 -27 -16 c-16 -9 -28 -17 -28 -18
0 -2 15 -3 34 -3 28 0 35 4 39 23 4 21 1 23 -39 23 -24 0 -44 -4 -44 -8z"/>
<path d="M3462 1400 c0 -14 2 -19 5 -12 2 6 2 18 0 25 -3 6 -5 1 -5 -13z"/>
<path d="M198 1523 c-17 -4 -14 -33 4 -33 5 0 7 4 3 9 -10 17 12 21 25 6 7 -8
18 -15 24 -15 6 0 4 4 -4 10 -8 5 -11 13 -6 17 4 4 13 0 20 -10 7 -9 21 -17
31 -17 15 0 14 3 -6 19 -23 18 -53 22 -91 14z"/>
<path d="M310 1515 c9 -11 16 -12 26 -5 9 8 15 6 23 -7 9 -17 10 -17 16 0 4 9
12 17 17 17 6 0 8 -6 5 -14 -10 -25 7 -28 25 -4 18 23 19 23 33 4 14 -18 15
-19 15 -2 0 12 5 16 16 12 8 -3 13 -2 10 3 -3 4 -49 9 -102 9 -83 1 -94 -1
-84 -13z"/>
<path d="M2090 1369 c0 -5 5 -7 10 -4 6 3 10 8 10 11 0 2 -4 4 -10 4 -5 0 -10
-5 -10 -11z"/>
<path d="M1829 1357 c6 -8 8 -17 4 -20 -3 -4 1 -7 10 -7 8 0 22 -2 29 -5 9 -4
14 2 15 15 1 17 -3 19 -23 14 -14 -4 -24 -2 -24 5 0 6 -5 11 -11 11 -8 0 -9
-4 0 -13z"/>
<path d="M1755 1340 c3 -5 10 -10 16 -10 5 0 9 5 9 10 0 6 -7 10 -16 10 -8 0
-12 -4 -9 -10z"/>
<path d="M3157 1274 c-14 -15 -6 -32 17 -36 21 -4 23 -2 17 16 -9 22 -23 30
-34 20z"/>
<path d="M3154 1205 c-3 -8 -3 -19 1 -25 11 -18 25 -11 25 15 0 27 -17 34 -26
10z"/>
<path d="M3284 1267 c-11 -29 0 -92 16 -92 11 0 15 12 15 49 0 49 -19 74 -31
43z"/>
<path d="M690 1130 c0 -5 7 -10 16 -10 8 0 12 5 9 10 -3 6 -10 10 -16 10 -5 0
-9 -4 -9 -10z"/>
<path d="M700 1085 c0 -8 2 -15 4 -15 2 0 6 7 10 15 3 8 1 15 -4 15 -6 0 -10
-7 -10 -15z"/>
<path d="M1940 1150 c0 -5 12 -10 28 -10 21 0 24 2 12 10 -20 13 -40 13 -40 0z"/>
<path d="M1874 1075 c-19 -12 -32 -24 -28 -28 4 -4 0 -7 -9 -7 -9 0 -17 -5
-17 -11 0 -6 6 -9 14 -6 7 3 18 1 23 -4 5 -5 19 -3 35 5 15 8 29 12 32 9 2 -3
15 2 28 11 12 9 41 16 63 17 l40 1 -34 9 c-28 9 -42 6 -87 -17 -30 -15 -57
-24 -60 -21 -14 14 7 35 40 41 20 4 36 10 36 14 0 15 -42 7 -76 -13z"/>
<path d="M985 1010 c3 -5 8 -10 11 -10 2 0 4 5 4 10 0 6 -5 10 -11 10 -5 0 -7
-4 -4 -10z"/>
<path d="M2476 1014 c-5 -12 -1 -14 16 -8 17 5 20 3 14 -11 -5 -15 -4 -16 9
-5 9 7 14 14 13 15 -2 1 -13 7 -25 13 -17 9 -22 9 -27 -4z"/>
<path d="M2445 991 c4 -14 -1 -21 -23 -29 -38 -13 -74 -10 -80 7 -3 10 0 12
11 8 9 -3 20 0 26 7 8 9 2 11 -23 8 -26 -3 -32 -8 -32 -25 1 -29 15 -38 50
-31 33 7 116 43 116 50 0 3 -5 2 -10 -1 -6 -3 -13 1 -16 9 -9 23 -27 20 -19
-3z"/>
<path d="M2588 1003 c7 -3 16 -2 19 1 4 3 -2 6 -13 5 -11 0 -14 -3 -6 -6z"/>
<path d="M2682 998 c6 -17 106 -39 114 -26 4 6 10 5 14 -3 7 -10 11 -10 24 0
18 15 22 1 4 -17 -16 -16 -3 -26 19 -17 22 10 55 7 68 -7 7 -6 0 -8 -19 -6
-21 2 -29 -2 -31 -14 -4 -24 24 -23 53 1 29 25 20 46 -27 64 -79 32 -226 48
-219 25z"/>
<path d="M2410 979 c0 -5 5 -7 10 -4 6 3 10 8 10 11 0 2 -4 4 -10 4 -5 0 -10
-5 -10 -11z"/>
<path d="M2476 945 c-3 -8 -10 -15 -16 -15 -6 0 -8 5 -4 12 5 8 2 9 -12 4 -10
-5 -32 -13 -48 -18 l-29 -11 27 -14 c14 -8 31 -11 37 -8 18 12 81 16 74 5 -12
-19 10 -10 45 20 35 30 35 54 0 32 -12 -7 -20 -8 -20 -2 0 16 -47 12 -54 -5z
m49 -15 c3 -5 2 -10 -4 -10 -5 0 -13 5 -16 10 -3 6 -2 10 4 10 5 0 13 -4 16
-10z m-95 -15 c-7 -9 -15 -13 -17 -11 -7 7 7 26 19 26 6 0 6 -6 -2 -15z"/>
<path d="M2790 915 c0 -24 28 -39 53 -27 18 9 19 11 5 11 -10 1 -18 5 -18 10
0 5 -9 11 -20 14 -12 3 -20 0 -20 -8z"/>
<path d="M2580 901 c0 -5 9 -11 19 -14 14 -3 18 -1 14 9 -6 15 -33 19 -33 5z"/>
<path d="M2710 895 c-8 -9 -8 -15 -2 -15 18 0 42 12 42 21 0 14 -26 10 -40 -6z"/>
<path d="M2913 883 c-18 -7 -16 -32 2 -39 20 -8 19 -21 -2 -27 -11 -3 -7 -5
10 -6 27 -1 28 1 25 36 -3 36 -12 46 -35 36z"/>
<path d="M2793 872 c-8 -5 -6 -13 6 -29 15 -18 28 -21 59 -14 7 2 -27 31 -36
31 -6 0 -12 4 -14 10 -1 5 -8 6 -15 2z"/>
<path d="M2602 852 c-17 -11 -4 -45 15 -38 8 3 37 6 64 6 36 0 49 4 49 14 0 8
-5 18 -12 22 -6 4 -8 3 -5 -3 9 -14 -9 -20 -50 -17 -52 3 -55 3 -48 14 7 12 4
12 -13 2z"/>
<path d="M2558 833 c7 -3 16 -2 19 1 4 3 -2 6 -13 5 -11 0 -14 -3 -6 -6z"/>
<path d="M2750 829 c0 -5 5 -7 10 -4 6 3 10 8 10 11 0 2 -4 4 -10 4 -5 0 -10
-5 -10 -11z"/>
<path d="M2858 803 c-25 -6 -31 -33 -8 -33 13 0 18 -5 14 -15 -5 -12 3 -15 40
-15 44 0 46 1 46 30 0 21 -5 30 -16 30 -8 0 -12 -4 -9 -10 10 -16 -11 -12 -25
5 -7 8 -15 14 -19 14 -3 -1 -13 -3 -23 -6z"/>
<path d="M2627 794 c-13 -13 5 -24 39 -24 32 0 42 8 27 23 -3 4 -12 2 -19 -4
-8 -7 -14 -7 -19 1 -7 11 -19 13 -28 4z"/>
<path d="M2600 768 c0 -9 5 -20 10 -23 8 -5 8 -11 0 -20 -8 -9 -5 -14 11 -18
15 -4 19 -2 15 9 -3 8 -1 14 4 14 6 0 10 5 10 10 0 6 -7 10 -15 10 -7 0 -19 8
-24 18 -10 16 -10 16 -11 0z"/>
<path d="M2696 754 c-11 -8 -16 -14 -10 -14 13 0 39 18 34 24 -3 2 -14 -2 -24
-10z"/>
<path d="M2695 719 c-9 -14 -2 -20 14 -10 8 6 9 11 3 15 -6 3 -14 1 -17 -5z"/>
<path d="M2535 710 c3 -5 8 -10 11 -10 2 0 4 5 4 10 0 6 -5 10 -11 10 -5 0 -7
-4 -4 -10z"/>
<path d="M2895 710 c28 -12 57 -12 50 0 -3 6 -21 10 -38 9 -27 0 -29 -2 -12
-9z"/>
<path d="M2340 685 c0 -14 5 -25 11 -25 8 0 8 -5 -1 -15 -10 -13 -9 -15 9 -15
18 0 20 4 15 24 -3 13 -1 27 5 31 16 9 3 25 -20 25 -14 0 -19 -7 -19 -25z"/>
<path d="M2770 701 c0 -6 5 -13 10 -16 6 -3 10 1 10 9 0 9 -4 16 -10 16 -5 0
-10 -4 -10 -9z"/>
<path d="M2928 683 c7 -3 16 -2 19 1 4 3 -2 6 -13 5 -11 0 -14 -3 -6 -6z"/>
<path d="M1936 885 c-3 -8 -1 -15 4 -15 13 0 22 18 11 24 -5 3 -11 -1 -15 -9z"/>
<path d="M1772 755 c-7 -15 -8 -27 -2 -30 6 -4 10 2 10 12 0 11 5 24 12 31 7
7 8 12 2 12 -6 0 -16 -11 -22 -25z"/>
<path d="M247 714 c-6 -7 -10 -54 -4 -54 1 0 17 4 35 9 17 5 32 6 32 2 0 -4
21 -9 46 -10 26 0 50 -4 55 -7 5 -3 9 0 9 6 0 6 10 8 28 4 23 -6 25 -5 14 8
-7 9 -9 24 -5 34 6 17 5 17 -10 6 -9 -8 -21 -11 -27 -7 -5 3 -10 0 -10 -8 0
-8 -10 -17 -22 -21 -34 -9 -38 -8 -38 9 0 10 10 15 28 15 23 1 24 2 10 11 -11
6 -25 6 -35 1 -19 -9 -43 -8 -78 3 -11 3 -24 3 -28 -1z m33 -24 c0 -5 -4 -10
-10 -10 -5 0 -10 5 -10 10 0 6 5 10 10 10 6 0 10 -4 10 -10z"/>
<path d="M298 625 c-6 -29 8 -43 48 -49 16 -2 23 -1 16 1 -7 3 -10 9 -7 14 4
5 -4 9 -17 10 -22 0 -22 1 -3 8 l20 8 -20 5 c-16 5 -17 6 -2 7 26 2 20 21 -7
21 -17 0 -25 -7 -28 -25z"/>
<path d="M2785 559 c-11 -17 1 -21 15 -4 8 9 8 15 2 15 -6 0 -14 -5 -17 -11z"/>
<path d="M1110 500 c0 -5 5 -10 10 -10 6 0 10 5 10 10 0 6 -4 10 -10 10 -5 0
-10 -4 -10 -10z"/>
<path d="M1160 500 c0 -5 7 -10 15 -10 8 0 15 5 15 10 0 6 -7 10 -15 10 -8 0
-15 -4 -15 -10z"/>
<path d="M2845 380 c28 -12 47 -12 40 0 -3 6 -18 10 -33 9 -24 0 -25 -1 -7 -9z"/>
<path d="M2815 300 c27 -12 43 -12 25 0 -8 5 -22 9 -30 9 -10 0 -8 -3 5 -9z"/>
<path d="M2291 240 l2 -60 34 0 c30 0 33 2 27 24 -3 15 1 29 12 40 16 16 15
18 -4 23 -13 3 -19 10 -15 19 3 8 0 14 -6 14 -6 0 -11 -10 -12 -22 l0 -23 -11
23 c-19 38 -29 24 -27 -38z"/>
<path d="M2514 288 c-3 -4 0 -8 6 -8 6 0 8 -5 5 -10 -3 -6 -18 -8 -33 -6 -23
4 -25 3 -11 -7 15 -11 15 -15 -8 -41 -13 -16 -22 -30 -19 -33 4 -5 55 -9 129
-12 48 -1 45 -23 -4 -32 -34 -6 -34 -6 9 -8 30 -1 42 3 42 13 0 7 6 19 14 25
11 9 15 8 20 -5 3 -9 4 -19 1 -23 -7 -12 58 -11 72 1 9 7 17 7 26 -1 13 -10
152 -9 163 2 3 3 -1 15 -8 26 -12 19 -34 32 -63 36 -27 5 -28 7 -10 16 15 7
11 8 -15 3 -67 -12 -120 -13 -126 -2 -4 7 -9 6 -14 -2 -6 -10 -13 -9 -31 4
-24 17 -22 19 21 17 24 0 24 0 -5 14 -39 19 -65 19 -65 0 0 -18 -17 -20 -23
-2 -3 9 -9 9 -28 -2 -19 -10 -21 -10 -11 0 20 21 15 48 -9 46 -11 -1 -23 -5
-25 -9z m156 -88 c0 -8 -90 -3 -99 6 -2 2 7 8 20 12 25 10 79 -3 79 -18z m120
-10 c13 -8 13 -10 -2 -10 -9 0 -20 5 -23 10 -8 13 5 13 25 0z m-80 -10 c0 -5
-5 -10 -11 -10 -5 0 -7 5 -4 10 3 6 8 10 11 10 2 0 4 -4 4 -10z m140 -16 c0
-8 -4 -12 -10 -9 -5 3 -10 10 -10 16 0 5 5 9 10 9 6 0 10 -7 10 -16z"/>
<path d="M2754 277 c-32 -23 -35 -47 -6 -47 10 0 24 5 32 10 11 8 8 9 -12 4
-16 -3 -28 -3 -28 0 0 4 12 18 28 31 34 30 27 31 -14 2z"/>
<path d="M1791 266 c10 -21 14 -23 30 -13 18 11 18 13 2 25 -29 21 -44 16 -32
-12z"/>
<path d="M2428 263 c6 -2 10 -9 6 -14 -3 -5 2 -9 10 -9 9 0 16 4 16 9 0 9 -25
22 -38 20 -4 0 -1 -3 6 -6z"/>
<path d="M3167 263 c-17 -17 -3 -24 45 -21 28 2 53 8 55 15 3 9 -5 9 -32 2
-25 -7 -40 -7 -49 0 -7 6 -16 8 -19 4z"/>
<path d="M1754 247 c-8 -21 -36 -30 -45 -15 -7 10 -11 10 -21 0 -9 -9 -9 -12
0 -12 7 0 12 -5 12 -11 0 -6 -7 -9 -14 -6 -10 4 -13 1 -9 -9 7 -18 12 -18 35
3 11 9 26 18 34 19 14 2 13 0 -1 -16 -9 -10 -12 -20 -7 -24 9 -5 92 1 99 7 8
9 -18 58 -28 52 -5 -4 -19 1 -29 10 -17 16 -20 16 -26 2z"/>
<path d="M1645 240 c3 -5 8 -10 11 -10 2 0 4 5 4 10 0 6 -5 10 -11 10 -5 0 -7
-4 -4 -10z"/>
<path d="M2016 223 c-3 -4 -6 -17 -6 -30 0 -21 4 -24 32 -21 17 2 34 9 36 17
3 10 0 12 -12 8 -10 -4 -16 -1 -16 7 0 15 -24 28 -34 19z"/>
<path d="M2370 219 c0 -5 5 -7 10 -4 6 3 10 8 10 11 0 2 -4 4 -10 4 -5 0 -10
-5 -10 -11z"/>
<path d="M2140 186 c0 -2 7 -7 16 -10 8 -3 12 -2 9 4 -6 10 -25 14 -25 6z"/>
<path d="M2068 133 c12 -2 30 -2 40 0 9 3 -1 5 -23 4 -22 0 -30 -2 -17 -4z"/>
<path d="M426 348 c-14 -20 -7 -56 12 -59 4 -1 198 -2 432 -4 367 -2 427 0
443 13 21 19 22 36 1 56 -14 14 -68 16 -444 16 -428 0 -429 0 -444 -22z m632
-17 c-2 -9 -11 -17 -21 -19 -21 -4 -35 27 -17 38 19 12 42 0 38 -19z m-591
-13 c-3 -7 -5 -2 -5 12 0 14 2 19 5 13 2 -7 2 -19 0 -25z m69 -6 c-6 -5 -36
23 -36 34 0 4 9 -1 20 -11 11 -10 18 -20 16 -23z m34 23 c0 -8 -2 -15 -4 -15
-2 0 -6 7 -10 15 -3 8 -1 15 4 15 6 0 10 -7 10 -15z m87 -17 c-3 -7 -5 -2 -5
12 0 14 2 19 5 13 2 -7 2 -19 0 -25z"/>
<path d="M1025 330 c3 -5 10 -10 16 -10 5 0 9 5 9 10 0 6 -7 10 -16 10 -8 0
-12 -4 -9 -10z"/>
<path d="M3595 448 c-4 -10 -4 -26 0 -35 8 -17 8 -17 12 0 3 9 3 25 0 35 -4
16 -4 16 -12 0z"/>
</g>
</svg>
