<svg width="24" height="24" viewBox="0 0 24 24" fill="none" xmlns="http://www.w3.org/2000/svg">
<path d="M2 7C2 6.46957 2.21071 5.96086 2.58579 5.58579C2.96086 5.21071 3.46957 5 4 5H20C20.5304 5 21.0391 5.21071 21.4142 5.58579C21.7893 5.96086 22 6.46957 22 7V17C22 17.5304 21.7893 18.0391 21.4142 18.4142C21.0391 18.7893 20.5304 19 20 19H4C3.46957 19 2.96086 18.7893 2.58579 18.4142C2.21071 18.0391 2 17.5304 2 17V7Z" stroke="white" stroke-width="2" stroke-linecap="round" stroke-linejoin="round"/>
<path d="M12 15C13.6569 15 15 13.6569 15 12C15 10.3431 13.6569 9 12 9C10.3431 9 9 10.3431 9 12C9 13.6569 10.3431 15 12 15Z" stroke="white" stroke-width="2" stroke-linecap="round" stroke-linejoin="round"/>
<path d="M18 19C18 17.9391 18.4214 16.9217 19.1716 16.1716C19.9217 15.4214 20.9391 15 22 15M2 9C3.06087 9 4.07828 8.57857 4.82843 7.82843C5.57857 7.07828 6 6.06087 6 5L2 9Z" stroke="white" stroke-width="2" stroke-linecap="round" stroke-linejoin="round"/>
</svg>
